<?xml version="1.0" encoding="utf-8"?>
<svg xmlns="http://www.w3.org/2000/svg" xmlns:xlink="http://www.w3.org/1999/xlink" width="600" height="400" viewBox="0 0 2400 1600">
<defs>
  <clipPath id="clip700">
    <rect x="0" y="0" width="2400" height="1600"/>
  </clipPath>
</defs>
<path clip-path="url(#clip700)" d="
M0 1600 L2400 1600 L2400 0 L0 0  Z
  " fill="#ffffff" fill-rule="evenodd" fill-opacity="1"/>
<defs>
  <clipPath id="clip701">
    <rect x="480" y="0" width="1681" height="1600"/>
  </clipPath>
</defs>
<path clip-path="url(#clip700)" d="
M193.936 1486.45 L2352.76 1486.45 L2352.76 47.2441 L193.936 47.2441  Z
  " fill="#ffffff" fill-rule="evenodd" fill-opacity="1"/>
<defs>
  <clipPath id="clip702">
    <rect x="193" y="47" width="2160" height="1440"/>
  </clipPath>
</defs>
<polyline clip-path="url(#clip702)" style="stroke:#000000; stroke-linecap:round; stroke-linejoin:round; stroke-width:2; stroke-opacity:0.1; fill:none" points="
  293.475,1486.45 293.475,47.2441 
  "/>
<polyline clip-path="url(#clip702)" style="stroke:#000000; stroke-linecap:round; stroke-linejoin:round; stroke-width:2; stroke-opacity:0.1; fill:none" points="
  620.099,1486.45 620.099,47.2441 
  "/>
<polyline clip-path="url(#clip702)" style="stroke:#000000; stroke-linecap:round; stroke-linejoin:round; stroke-width:2; stroke-opacity:0.1; fill:none" points="
  946.722,1486.45 946.722,47.2441 
  "/>
<polyline clip-path="url(#clip702)" style="stroke:#000000; stroke-linecap:round; stroke-linejoin:round; stroke-width:2; stroke-opacity:0.1; fill:none" points="
  1273.35,1486.45 1273.35,47.2441 
  "/>
<polyline clip-path="url(#clip702)" style="stroke:#000000; stroke-linecap:round; stroke-linejoin:round; stroke-width:2; stroke-opacity:0.1; fill:none" points="
  1599.97,1486.45 1599.97,47.2441 
  "/>
<polyline clip-path="url(#clip702)" style="stroke:#000000; stroke-linecap:round; stroke-linejoin:round; stroke-width:2; stroke-opacity:0.1; fill:none" points="
  1926.59,1486.45 1926.59,47.2441 
  "/>
<polyline clip-path="url(#clip702)" style="stroke:#000000; stroke-linecap:round; stroke-linejoin:round; stroke-width:2; stroke-opacity:0.1; fill:none" points="
  2253.22,1486.45 2253.22,47.2441 
  "/>
<polyline clip-path="url(#clip700)" style="stroke:#000000; stroke-linecap:round; stroke-linejoin:round; stroke-width:4; stroke-opacity:1; fill:none" points="
  193.936,1486.45 2352.76,1486.45 
  "/>
<polyline clip-path="url(#clip700)" style="stroke:#000000; stroke-linecap:round; stroke-linejoin:round; stroke-width:4; stroke-opacity:1; fill:none" points="
  293.475,1486.45 293.475,1467.55 
  "/>
<polyline clip-path="url(#clip700)" style="stroke:#000000; stroke-linecap:round; stroke-linejoin:round; stroke-width:4; stroke-opacity:1; fill:none" points="
  620.099,1486.45 620.099,1467.55 
  "/>
<polyline clip-path="url(#clip700)" style="stroke:#000000; stroke-linecap:round; stroke-linejoin:round; stroke-width:4; stroke-opacity:1; fill:none" points="
  946.722,1486.45 946.722,1467.55 
  "/>
<polyline clip-path="url(#clip700)" style="stroke:#000000; stroke-linecap:round; stroke-linejoin:round; stroke-width:4; stroke-opacity:1; fill:none" points="
  1273.35,1486.45 1273.35,1467.55 
  "/>
<polyline clip-path="url(#clip700)" style="stroke:#000000; stroke-linecap:round; stroke-linejoin:round; stroke-width:4; stroke-opacity:1; fill:none" points="
  1599.97,1486.45 1599.97,1467.55 
  "/>
<polyline clip-path="url(#clip700)" style="stroke:#000000; stroke-linecap:round; stroke-linejoin:round; stroke-width:4; stroke-opacity:1; fill:none" points="
  1926.59,1486.45 1926.59,1467.55 
  "/>
<polyline clip-path="url(#clip700)" style="stroke:#000000; stroke-linecap:round; stroke-linejoin:round; stroke-width:4; stroke-opacity:1; fill:none" points="
  2253.22,1486.45 2253.22,1467.55 
  "/>
<path clip-path="url(#clip700)" d="M240.501 1532.02 L270.177 1532.02 L270.177 1535.95 L240.501 1535.95 L240.501 1532.02 Z" fill="#000000" fill-rule="evenodd" fill-opacity="1" /><path clip-path="url(#clip700)" d="M281.08 1544.91 L288.719 1544.91 L288.719 1518.55 L280.408 1520.21 L280.408 1515.95 L288.672 1514.29 L293.348 1514.29 L293.348 1544.91 L300.987 1544.91 L300.987 1548.85 L281.08 1548.85 L281.08 1544.91 Z" fill="#000000" fill-rule="evenodd" fill-opacity="1" /><path clip-path="url(#clip700)" d="M310.431 1542.97 L315.316 1542.97 L315.316 1548.85 L310.431 1548.85 L310.431 1542.97 Z" fill="#000000" fill-rule="evenodd" fill-opacity="1" /><path clip-path="url(#clip700)" d="M325.547 1514.29 L343.903 1514.29 L343.903 1518.22 L329.829 1518.22 L329.829 1526.7 Q330.848 1526.35 331.866 1526.19 Q332.885 1526 333.903 1526 Q339.69 1526 343.07 1529.17 Q346.45 1532.34 346.45 1537.76 Q346.45 1543.34 342.978 1546.44 Q339.505 1549.52 333.186 1549.52 Q331.01 1549.52 328.741 1549.15 Q326.496 1548.78 324.089 1548.04 L324.089 1543.34 Q326.172 1544.47 328.394 1545.03 Q330.616 1545.58 333.093 1545.58 Q337.098 1545.58 339.436 1543.48 Q341.774 1541.37 341.774 1537.76 Q341.774 1534.15 339.436 1532.04 Q337.098 1529.94 333.093 1529.94 Q331.218 1529.94 329.343 1530.35 Q327.491 1530.77 325.547 1531.65 L325.547 1514.29 Z" fill="#000000" fill-rule="evenodd" fill-opacity="1" /><path clip-path="url(#clip700)" d="M566.627 1532.02 L596.303 1532.02 L596.303 1535.95 L566.627 1535.95 L566.627 1532.02 Z" fill="#000000" fill-rule="evenodd" fill-opacity="1" /><path clip-path="url(#clip700)" d="M607.206 1544.91 L614.844 1544.91 L614.844 1518.55 L606.534 1520.21 L606.534 1515.95 L614.798 1514.29 L619.474 1514.29 L619.474 1544.91 L627.113 1544.91 L627.113 1548.85 L607.206 1548.85 L607.206 1544.91 Z" fill="#000000" fill-rule="evenodd" fill-opacity="1" /><path clip-path="url(#clip700)" d="M636.557 1542.97 L641.441 1542.97 L641.441 1548.85 L636.557 1548.85 L636.557 1542.97 Z" fill="#000000" fill-rule="evenodd" fill-opacity="1" /><path clip-path="url(#clip700)" d="M661.627 1517.37 Q658.015 1517.37 656.187 1520.93 Q654.381 1524.47 654.381 1531.6 Q654.381 1538.71 656.187 1542.27 Q658.015 1545.82 661.627 1545.82 Q665.261 1545.82 667.066 1542.27 Q668.895 1538.71 668.895 1531.6 Q668.895 1524.47 667.066 1520.93 Q665.261 1517.37 661.627 1517.37 M661.627 1513.66 Q667.437 1513.66 670.492 1518.27 Q673.571 1522.85 673.571 1531.6 Q673.571 1540.33 670.492 1544.94 Q667.437 1549.52 661.627 1549.52 Q655.816 1549.52 652.738 1544.94 Q649.682 1540.33 649.682 1531.6 Q649.682 1522.85 652.738 1518.27 Q655.816 1513.66 661.627 1513.66 Z" fill="#000000" fill-rule="evenodd" fill-opacity="1" /><path clip-path="url(#clip700)" d="M893.748 1532.02 L923.424 1532.02 L923.424 1535.95 L893.748 1535.95 L893.748 1532.02 Z" fill="#000000" fill-rule="evenodd" fill-opacity="1" /><path clip-path="url(#clip700)" d="M943.516 1517.37 Q939.905 1517.37 938.077 1520.93 Q936.271 1524.47 936.271 1531.6 Q936.271 1538.71 938.077 1542.27 Q939.905 1545.82 943.516 1545.82 Q947.151 1545.82 948.956 1542.27 Q950.785 1538.71 950.785 1531.6 Q950.785 1524.47 948.956 1520.93 Q947.151 1517.37 943.516 1517.37 M943.516 1513.66 Q949.327 1513.66 952.382 1518.27 Q955.461 1522.85 955.461 1531.6 Q955.461 1540.33 952.382 1544.94 Q949.327 1549.52 943.516 1549.52 Q937.706 1549.52 934.628 1544.94 Q931.572 1540.33 931.572 1531.6 Q931.572 1522.85 934.628 1518.27 Q937.706 1513.66 943.516 1513.66 Z" fill="#000000" fill-rule="evenodd" fill-opacity="1" /><path clip-path="url(#clip700)" d="M963.678 1542.97 L968.563 1542.97 L968.563 1548.85 L963.678 1548.85 L963.678 1542.97 Z" fill="#000000" fill-rule="evenodd" fill-opacity="1" /><path clip-path="url(#clip700)" d="M978.794 1514.29 L997.15 1514.29 L997.15 1518.22 L983.076 1518.22 L983.076 1526.7 Q984.095 1526.35 985.113 1526.19 Q986.132 1526 987.15 1526 Q992.937 1526 996.317 1529.17 Q999.697 1532.34 999.697 1537.76 Q999.697 1543.34 996.225 1546.44 Q992.752 1549.52 986.433 1549.52 Q984.257 1549.52 981.988 1549.15 Q979.743 1548.78 977.336 1548.04 L977.336 1543.34 Q979.419 1544.47 981.641 1545.03 Q983.863 1545.58 986.34 1545.58 Q990.345 1545.58 992.683 1543.48 Q995.021 1541.37 995.021 1537.76 Q995.021 1534.15 992.683 1532.04 Q990.345 1529.94 986.34 1529.94 Q984.465 1529.94 982.59 1530.35 Q980.738 1530.77 978.794 1531.65 L978.794 1514.29 Z" fill="#000000" fill-rule="evenodd" fill-opacity="1" /><path clip-path="url(#clip700)" d="M1250.73 1517.37 Q1247.12 1517.37 1245.29 1520.93 Q1243.49 1524.47 1243.49 1531.6 Q1243.49 1538.71 1245.29 1542.27 Q1247.12 1545.82 1250.73 1545.82 Q1254.36 1545.82 1256.17 1542.27 Q1258 1538.71 1258 1531.6 Q1258 1524.47 1256.17 1520.93 Q1254.36 1517.37 1250.73 1517.37 M1250.73 1513.66 Q1256.54 1513.66 1259.6 1518.27 Q1262.67 1522.85 1262.67 1531.6 Q1262.67 1540.33 1259.6 1544.94 Q1256.54 1549.52 1250.73 1549.52 Q1244.92 1549.52 1241.84 1544.94 Q1238.79 1540.33 1238.79 1531.6 Q1238.79 1522.85 1241.84 1518.27 Q1244.92 1513.66 1250.73 1513.66 Z" fill="#000000" fill-rule="evenodd" fill-opacity="1" /><path clip-path="url(#clip700)" d="M1270.89 1542.97 L1275.78 1542.97 L1275.78 1548.85 L1270.89 1548.85 L1270.89 1542.97 Z" fill="#000000" fill-rule="evenodd" fill-opacity="1" /><path clip-path="url(#clip700)" d="M1295.96 1517.37 Q1292.35 1517.37 1290.52 1520.93 Q1288.72 1524.47 1288.72 1531.6 Q1288.72 1538.71 1290.52 1542.27 Q1292.35 1545.82 1295.96 1545.82 Q1299.6 1545.82 1301.4 1542.27 Q1303.23 1538.71 1303.23 1531.6 Q1303.23 1524.47 1301.4 1520.93 Q1299.6 1517.37 1295.96 1517.37 M1295.96 1513.66 Q1301.77 1513.66 1304.83 1518.27 Q1307.91 1522.85 1307.91 1531.6 Q1307.91 1540.33 1304.83 1544.94 Q1301.77 1549.52 1295.96 1549.52 Q1290.15 1549.52 1287.07 1544.94 Q1284.02 1540.33 1284.02 1531.6 Q1284.02 1522.85 1287.07 1518.27 Q1290.15 1513.66 1295.96 1513.66 Z" fill="#000000" fill-rule="evenodd" fill-opacity="1" /><path clip-path="url(#clip700)" d="M1577.85 1517.37 Q1574.24 1517.37 1572.41 1520.93 Q1570.61 1524.47 1570.61 1531.6 Q1570.61 1538.71 1572.41 1542.27 Q1574.24 1545.82 1577.85 1545.82 Q1581.49 1545.82 1583.29 1542.27 Q1585.12 1538.71 1585.12 1531.6 Q1585.12 1524.47 1583.29 1520.93 Q1581.49 1517.37 1577.85 1517.37 M1577.85 1513.66 Q1583.66 1513.66 1586.72 1518.27 Q1589.8 1522.85 1589.8 1531.6 Q1589.8 1540.33 1586.72 1544.94 Q1583.66 1549.52 1577.85 1549.52 Q1572.04 1549.52 1568.96 1544.94 Q1565.91 1540.33 1565.91 1531.6 Q1565.91 1522.85 1568.96 1518.27 Q1572.04 1513.66 1577.85 1513.66 Z" fill="#000000" fill-rule="evenodd" fill-opacity="1" /><path clip-path="url(#clip700)" d="M1598.01 1542.97 L1602.9 1542.97 L1602.9 1548.85 L1598.01 1548.85 L1598.01 1542.97 Z" fill="#000000" fill-rule="evenodd" fill-opacity="1" /><path clip-path="url(#clip700)" d="M1613.13 1514.29 L1631.49 1514.29 L1631.49 1518.22 L1617.41 1518.22 L1617.41 1526.7 Q1618.43 1526.35 1619.45 1526.19 Q1620.47 1526 1621.49 1526 Q1627.27 1526 1630.65 1529.17 Q1634.03 1532.34 1634.03 1537.76 Q1634.03 1543.34 1630.56 1546.44 Q1627.09 1549.52 1620.77 1549.52 Q1618.59 1549.52 1616.32 1549.15 Q1614.08 1548.78 1611.67 1548.04 L1611.67 1543.34 Q1613.75 1544.47 1615.98 1545.03 Q1618.2 1545.58 1620.68 1545.58 Q1624.68 1545.58 1627.02 1543.48 Q1629.36 1541.37 1629.36 1537.76 Q1629.36 1534.15 1627.02 1532.04 Q1624.68 1529.94 1620.68 1529.94 Q1618.8 1529.94 1616.93 1530.35 Q1615.07 1530.77 1613.13 1531.65 L1613.13 1514.29 Z" fill="#000000" fill-rule="evenodd" fill-opacity="1" /><path clip-path="url(#clip700)" d="M1893.75 1544.91 L1901.38 1544.91 L1901.38 1518.55 L1893.07 1520.21 L1893.07 1515.95 L1901.34 1514.29 L1906.01 1514.29 L1906.01 1544.91 L1913.65 1544.91 L1913.65 1548.85 L1893.75 1548.85 L1893.75 1544.91 Z" fill="#000000" fill-rule="evenodd" fill-opacity="1" /><path clip-path="url(#clip700)" d="M1923.1 1542.97 L1927.98 1542.97 L1927.98 1548.85 L1923.1 1548.85 L1923.1 1542.97 Z" fill="#000000" fill-rule="evenodd" fill-opacity="1" /><path clip-path="url(#clip700)" d="M1948.17 1517.37 Q1944.56 1517.37 1942.73 1520.93 Q1940.92 1524.47 1940.92 1531.6 Q1940.92 1538.71 1942.73 1542.27 Q1944.56 1545.82 1948.17 1545.82 Q1951.8 1545.82 1953.61 1542.27 Q1955.44 1538.71 1955.44 1531.6 Q1955.44 1524.47 1953.61 1520.93 Q1951.8 1517.37 1948.17 1517.37 M1948.17 1513.66 Q1953.98 1513.66 1957.03 1518.27 Q1960.11 1522.85 1960.11 1531.6 Q1960.11 1540.33 1957.03 1544.94 Q1953.98 1549.52 1948.17 1549.52 Q1942.36 1549.52 1939.28 1544.94 Q1936.22 1540.33 1936.22 1531.6 Q1936.22 1522.85 1939.28 1518.27 Q1942.36 1513.66 1948.17 1513.66 Z" fill="#000000" fill-rule="evenodd" fill-opacity="1" /><path clip-path="url(#clip700)" d="M2220.87 1544.91 L2228.51 1544.91 L2228.51 1518.55 L2220.2 1520.21 L2220.2 1515.95 L2228.46 1514.29 L2233.14 1514.29 L2233.14 1544.91 L2240.77 1544.91 L2240.77 1548.85 L2220.87 1548.85 L2220.87 1544.91 Z" fill="#000000" fill-rule="evenodd" fill-opacity="1" /><path clip-path="url(#clip700)" d="M2250.22 1542.97 L2255.1 1542.97 L2255.1 1548.85 L2250.22 1548.85 L2250.22 1542.97 Z" fill="#000000" fill-rule="evenodd" fill-opacity="1" /><path clip-path="url(#clip700)" d="M2265.33 1514.29 L2283.69 1514.29 L2283.69 1518.22 L2269.62 1518.22 L2269.62 1526.7 Q2270.64 1526.35 2271.65 1526.19 Q2272.67 1526 2273.69 1526 Q2279.48 1526 2282.86 1529.17 Q2286.24 1532.34 2286.24 1537.76 Q2286.24 1543.34 2282.76 1546.44 Q2279.29 1549.52 2272.97 1549.52 Q2270.8 1549.52 2268.53 1549.15 Q2266.28 1548.78 2263.88 1548.04 L2263.88 1543.34 Q2265.96 1544.47 2268.18 1545.03 Q2270.4 1545.58 2272.88 1545.58 Q2276.89 1545.58 2279.22 1543.48 Q2281.56 1541.37 2281.56 1537.76 Q2281.56 1534.15 2279.22 1532.04 Q2276.89 1529.94 2272.88 1529.94 Q2271.01 1529.94 2269.13 1530.35 Q2267.28 1530.77 2265.33 1531.65 L2265.33 1514.29 Z" fill="#000000" fill-rule="evenodd" fill-opacity="1" /><polyline clip-path="url(#clip702)" style="stroke:#000000; stroke-linecap:round; stroke-linejoin:round; stroke-width:2; stroke-opacity:0.1; fill:none" points="
  193.936,1420.09 2352.76,1420.09 
  "/>
<polyline clip-path="url(#clip702)" style="stroke:#000000; stroke-linecap:round; stroke-linejoin:round; stroke-width:2; stroke-opacity:0.1; fill:none" points="
  193.936,1202.34 2352.76,1202.34 
  "/>
<polyline clip-path="url(#clip702)" style="stroke:#000000; stroke-linecap:round; stroke-linejoin:round; stroke-width:2; stroke-opacity:0.1; fill:none" points="
  193.936,984.594 2352.76,984.594 
  "/>
<polyline clip-path="url(#clip702)" style="stroke:#000000; stroke-linecap:round; stroke-linejoin:round; stroke-width:2; stroke-opacity:0.1; fill:none" points="
  193.936,766.846 2352.76,766.846 
  "/>
<polyline clip-path="url(#clip702)" style="stroke:#000000; stroke-linecap:round; stroke-linejoin:round; stroke-width:2; stroke-opacity:0.1; fill:none" points="
  193.936,549.098 2352.76,549.098 
  "/>
<polyline clip-path="url(#clip702)" style="stroke:#000000; stroke-linecap:round; stroke-linejoin:round; stroke-width:2; stroke-opacity:0.1; fill:none" points="
  193.936,331.351 2352.76,331.351 
  "/>
<polyline clip-path="url(#clip702)" style="stroke:#000000; stroke-linecap:round; stroke-linejoin:round; stroke-width:2; stroke-opacity:0.1; fill:none" points="
  193.936,113.603 2352.76,113.603 
  "/>
<polyline clip-path="url(#clip700)" style="stroke:#000000; stroke-linecap:round; stroke-linejoin:round; stroke-width:4; stroke-opacity:1; fill:none" points="
  193.936,1486.45 193.936,47.2441 
  "/>
<polyline clip-path="url(#clip700)" style="stroke:#000000; stroke-linecap:round; stroke-linejoin:round; stroke-width:4; stroke-opacity:1; fill:none" points="
  193.936,1420.09 212.834,1420.09 
  "/>
<polyline clip-path="url(#clip700)" style="stroke:#000000; stroke-linecap:round; stroke-linejoin:round; stroke-width:4; stroke-opacity:1; fill:none" points="
  193.936,1202.34 212.834,1202.34 
  "/>
<polyline clip-path="url(#clip700)" style="stroke:#000000; stroke-linecap:round; stroke-linejoin:round; stroke-width:4; stroke-opacity:1; fill:none" points="
  193.936,984.594 212.834,984.594 
  "/>
<polyline clip-path="url(#clip700)" style="stroke:#000000; stroke-linecap:round; stroke-linejoin:round; stroke-width:4; stroke-opacity:1; fill:none" points="
  193.936,766.846 212.834,766.846 
  "/>
<polyline clip-path="url(#clip700)" style="stroke:#000000; stroke-linecap:round; stroke-linejoin:round; stroke-width:4; stroke-opacity:1; fill:none" points="
  193.936,549.098 212.834,549.098 
  "/>
<polyline clip-path="url(#clip700)" style="stroke:#000000; stroke-linecap:round; stroke-linejoin:round; stroke-width:4; stroke-opacity:1; fill:none" points="
  193.936,331.351 212.834,331.351 
  "/>
<polyline clip-path="url(#clip700)" style="stroke:#000000; stroke-linecap:round; stroke-linejoin:round; stroke-width:4; stroke-opacity:1; fill:none" points="
  193.936,113.603 212.834,113.603 
  "/>
<path clip-path="url(#clip700)" d="M51.9875 1420.54 L81.6633 1420.54 L81.6633 1424.48 L51.9875 1424.48 L51.9875 1420.54 Z" fill="#000000" fill-rule="evenodd" fill-opacity="1" /><path clip-path="url(#clip700)" d="M92.566 1433.43 L100.205 1433.43 L100.205 1407.07 L91.8947 1408.73 L91.8947 1404.48 L100.159 1402.81 L104.834 1402.81 L104.834 1433.43 L112.473 1433.43 L112.473 1437.37 L92.566 1437.37 L92.566 1433.43 Z" fill="#000000" fill-rule="evenodd" fill-opacity="1" /><path clip-path="url(#clip700)" d="M121.918 1431.49 L126.802 1431.49 L126.802 1437.37 L121.918 1437.37 L121.918 1431.49 Z" fill="#000000" fill-rule="evenodd" fill-opacity="1" /><path clip-path="url(#clip700)" d="M137.033 1402.81 L155.39 1402.81 L155.39 1406.74 L141.316 1406.74 L141.316 1415.22 Q142.334 1414.87 143.353 1414.71 Q144.371 1414.52 145.39 1414.52 Q151.177 1414.52 154.556 1417.69 Q157.936 1420.86 157.936 1426.28 Q157.936 1431.86 154.464 1434.96 Q150.992 1438.04 144.672 1438.04 Q142.496 1438.04 140.228 1437.67 Q137.982 1437.3 135.575 1436.56 L135.575 1431.86 Q137.658 1432.99 139.881 1433.55 Q142.103 1434.1 144.58 1434.1 Q148.584 1434.1 150.922 1432 Q153.26 1429.89 153.26 1426.28 Q153.26 1422.67 150.922 1420.56 Q148.584 1418.46 144.58 1418.46 Q142.705 1418.46 140.83 1418.87 Q138.978 1419.29 137.033 1420.17 L137.033 1402.81 Z" fill="#000000" fill-rule="evenodd" fill-opacity="1" /><path clip-path="url(#clip700)" d="M50.9921 1202.79 L80.6679 1202.79 L80.6679 1206.73 L50.9921 1206.73 L50.9921 1202.79 Z" fill="#000000" fill-rule="evenodd" fill-opacity="1" /><path clip-path="url(#clip700)" d="M91.5706 1215.69 L99.2095 1215.69 L99.2095 1189.32 L90.8993 1190.99 L90.8993 1186.73 L99.1632 1185.06 L103.839 1185.06 L103.839 1215.69 L111.478 1215.69 L111.478 1219.62 L91.5706 1219.62 L91.5706 1215.69 Z" fill="#000000" fill-rule="evenodd" fill-opacity="1" /><path clip-path="url(#clip700)" d="M120.922 1213.74 L125.807 1213.74 L125.807 1219.62 L120.922 1219.62 L120.922 1213.74 Z" fill="#000000" fill-rule="evenodd" fill-opacity="1" /><path clip-path="url(#clip700)" d="M145.992 1188.14 Q142.381 1188.14 140.552 1191.7 Q138.746 1195.25 138.746 1202.38 Q138.746 1209.48 140.552 1213.05 Q142.381 1216.59 145.992 1216.59 Q149.626 1216.59 151.431 1213.05 Q153.26 1209.48 153.26 1202.38 Q153.26 1195.25 151.431 1191.7 Q149.626 1188.14 145.992 1188.14 M145.992 1184.44 Q151.802 1184.44 154.857 1189.04 Q157.936 1193.63 157.936 1202.38 Q157.936 1211.1 154.857 1215.71 Q151.802 1220.29 145.992 1220.29 Q140.181 1220.29 137.103 1215.71 Q134.047 1211.1 134.047 1202.38 Q134.047 1193.63 137.103 1189.04 Q140.181 1184.44 145.992 1184.44 Z" fill="#000000" fill-rule="evenodd" fill-opacity="1" /><path clip-path="url(#clip700)" d="M51.9875 985.045 L81.6633 985.045 L81.6633 988.98 L51.9875 988.98 L51.9875 985.045 Z" fill="#000000" fill-rule="evenodd" fill-opacity="1" /><path clip-path="url(#clip700)" d="M101.756 970.392 Q98.1447 970.392 96.316 973.957 Q94.5104 977.499 94.5104 984.628 Q94.5104 991.735 96.316 995.3 Q98.1447 998.841 101.756 998.841 Q105.39 998.841 107.196 995.3 Q109.024 991.735 109.024 984.628 Q109.024 977.499 107.196 973.957 Q105.39 970.392 101.756 970.392 M101.756 966.689 Q107.566 966.689 110.621 971.295 Q113.7 975.878 113.7 984.628 Q113.7 993.355 110.621 997.962 Q107.566 1002.54 101.756 1002.54 Q95.9456 1002.54 92.8669 997.962 Q89.8114 993.355 89.8114 984.628 Q89.8114 975.878 92.8669 971.295 Q95.9456 966.689 101.756 966.689 Z" fill="#000000" fill-rule="evenodd" fill-opacity="1" /><path clip-path="url(#clip700)" d="M121.918 995.994 L126.802 995.994 L126.802 1001.87 L121.918 1001.87 L121.918 995.994 Z" fill="#000000" fill-rule="evenodd" fill-opacity="1" /><path clip-path="url(#clip700)" d="M137.033 967.314 L155.39 967.314 L155.39 971.249 L141.316 971.249 L141.316 979.721 Q142.334 979.374 143.353 979.212 Q144.371 979.026 145.39 979.026 Q151.177 979.026 154.556 982.198 Q157.936 985.369 157.936 990.786 Q157.936 996.364 154.464 999.466 Q150.992 1002.54 144.672 1002.54 Q142.496 1002.54 140.228 1002.17 Q137.982 1001.8 135.575 1001.06 L135.575 996.364 Q137.658 997.499 139.881 998.054 Q142.103 998.61 144.58 998.61 Q148.584 998.61 150.922 996.503 Q153.26 994.397 153.26 990.786 Q153.26 987.175 150.922 985.068 Q148.584 982.962 144.58 982.962 Q142.705 982.962 140.83 983.378 Q138.978 983.795 137.033 984.675 L137.033 967.314 Z" fill="#000000" fill-rule="evenodd" fill-opacity="1" /><path clip-path="url(#clip700)" d="M100.76 752.645 Q97.1493 752.645 95.3206 756.209 Q93.515 759.751 93.515 766.881 Q93.515 773.987 95.3206 777.552 Q97.1493 781.094 100.76 781.094 Q104.395 781.094 106.2 777.552 Q108.029 773.987 108.029 766.881 Q108.029 759.751 106.2 756.209 Q104.395 752.645 100.76 752.645 M100.76 748.941 Q106.571 748.941 109.626 753.547 Q112.705 758.131 112.705 766.881 Q112.705 775.608 109.626 780.214 Q106.571 784.797 100.76 784.797 Q94.9502 784.797 91.8715 780.214 Q88.816 775.608 88.816 766.881 Q88.816 758.131 91.8715 753.547 Q94.9502 748.941 100.76 748.941 Z" fill="#000000" fill-rule="evenodd" fill-opacity="1" /><path clip-path="url(#clip700)" d="M120.922 778.246 L125.807 778.246 L125.807 784.126 L120.922 784.126 L120.922 778.246 Z" fill="#000000" fill-rule="evenodd" fill-opacity="1" /><path clip-path="url(#clip700)" d="M145.992 752.645 Q142.381 752.645 140.552 756.209 Q138.746 759.751 138.746 766.881 Q138.746 773.987 140.552 777.552 Q142.381 781.094 145.992 781.094 Q149.626 781.094 151.431 777.552 Q153.26 773.987 153.26 766.881 Q153.26 759.751 151.431 756.209 Q149.626 752.645 145.992 752.645 M145.992 748.941 Q151.802 748.941 154.857 753.547 Q157.936 758.131 157.936 766.881 Q157.936 775.608 154.857 780.214 Q151.802 784.797 145.992 784.797 Q140.181 784.797 137.103 780.214 Q134.047 775.608 134.047 766.881 Q134.047 758.131 137.103 753.547 Q140.181 748.941 145.992 748.941 Z" fill="#000000" fill-rule="evenodd" fill-opacity="1" /><path clip-path="url(#clip700)" d="M101.756 534.897 Q98.1447 534.897 96.316 538.462 Q94.5104 542.004 94.5104 549.133 Q94.5104 556.24 96.316 559.804 Q98.1447 563.346 101.756 563.346 Q105.39 563.346 107.196 559.804 Q109.024 556.24 109.024 549.133 Q109.024 542.004 107.196 538.462 Q105.39 534.897 101.756 534.897 M101.756 531.193 Q107.566 531.193 110.621 535.8 Q113.7 540.383 113.7 549.133 Q113.7 557.86 110.621 562.466 Q107.566 567.05 101.756 567.05 Q95.9456 567.05 92.8669 562.466 Q89.8114 557.86 89.8114 549.133 Q89.8114 540.383 92.8669 535.8 Q95.9456 531.193 101.756 531.193 Z" fill="#000000" fill-rule="evenodd" fill-opacity="1" /><path clip-path="url(#clip700)" d="M121.918 560.499 L126.802 560.499 L126.802 566.378 L121.918 566.378 L121.918 560.499 Z" fill="#000000" fill-rule="evenodd" fill-opacity="1" /><path clip-path="url(#clip700)" d="M137.033 531.818 L155.39 531.818 L155.39 535.754 L141.316 535.754 L141.316 544.226 Q142.334 543.879 143.353 543.717 Q144.371 543.531 145.39 543.531 Q151.177 543.531 154.556 546.703 Q157.936 549.874 157.936 555.291 Q157.936 560.869 154.464 563.971 Q150.992 567.05 144.672 567.05 Q142.496 567.05 140.228 566.679 Q137.982 566.309 135.575 565.568 L135.575 560.869 Q137.658 562.003 139.881 562.559 Q142.103 563.115 144.58 563.115 Q148.584 563.115 150.922 561.008 Q153.26 558.902 153.26 555.291 Q153.26 551.679 150.922 549.573 Q148.584 547.466 144.58 547.466 Q142.705 547.466 140.83 547.883 Q138.978 548.3 137.033 549.179 L137.033 531.818 Z" fill="#000000" fill-rule="evenodd" fill-opacity="1" /><path clip-path="url(#clip700)" d="M91.5706 344.696 L99.2095 344.696 L99.2095 318.33 L90.8993 319.997 L90.8993 315.738 L99.1632 314.071 L103.839 314.071 L103.839 344.696 L111.478 344.696 L111.478 348.631 L91.5706 348.631 L91.5706 344.696 Z" fill="#000000" fill-rule="evenodd" fill-opacity="1" /><path clip-path="url(#clip700)" d="M120.922 342.751 L125.807 342.751 L125.807 348.631 L120.922 348.631 L120.922 342.751 Z" fill="#000000" fill-rule="evenodd" fill-opacity="1" /><path clip-path="url(#clip700)" d="M145.992 317.15 Q142.381 317.15 140.552 320.714 Q138.746 324.256 138.746 331.386 Q138.746 338.492 140.552 342.057 Q142.381 345.598 145.992 345.598 Q149.626 345.598 151.431 342.057 Q153.26 338.492 153.26 331.386 Q153.26 324.256 151.431 320.714 Q149.626 317.15 145.992 317.15 M145.992 313.446 Q151.802 313.446 154.857 318.052 Q157.936 322.636 157.936 331.386 Q157.936 340.112 154.857 344.719 Q151.802 349.302 145.992 349.302 Q140.181 349.302 137.103 344.719 Q134.047 340.112 134.047 331.386 Q134.047 322.636 137.103 318.052 Q140.181 313.446 145.992 313.446 Z" fill="#000000" fill-rule="evenodd" fill-opacity="1" /><path clip-path="url(#clip700)" d="M92.566 126.948 L100.205 126.948 L100.205 100.583 L91.8947 102.249 L91.8947 97.99 L100.159 96.3233 L104.834 96.3233 L104.834 126.948 L112.473 126.948 L112.473 130.883 L92.566 130.883 L92.566 126.948 Z" fill="#000000" fill-rule="evenodd" fill-opacity="1" /><path clip-path="url(#clip700)" d="M121.918 125.004 L126.802 125.004 L126.802 130.883 L121.918 130.883 L121.918 125.004 Z" fill="#000000" fill-rule="evenodd" fill-opacity="1" /><path clip-path="url(#clip700)" d="M137.033 96.3233 L155.39 96.3233 L155.39 100.258 L141.316 100.258 L141.316 108.731 Q142.334 108.383 143.353 108.221 Q144.371 108.036 145.39 108.036 Q151.177 108.036 154.556 111.207 Q157.936 114.379 157.936 119.795 Q157.936 125.374 154.464 128.476 Q150.992 131.555 144.672 131.555 Q142.496 131.555 140.228 131.184 Q137.982 130.814 135.575 130.073 L135.575 125.374 Q137.658 126.508 139.881 127.064 Q142.103 127.619 144.58 127.619 Q148.584 127.619 150.922 125.513 Q153.26 123.406 153.26 119.795 Q153.26 116.184 150.922 114.078 Q148.584 111.971 144.58 111.971 Q142.705 111.971 140.83 112.388 Q138.978 112.805 137.033 113.684 L137.033 96.3233 Z" fill="#000000" fill-rule="evenodd" fill-opacity="1" /><circle clip-path="url(#clip702)" cx="255.035" cy="87.9763" r="14.4" fill="#009af9" fill-rule="evenodd" fill-opacity="1" stroke="#000000" stroke-opacity="1" stroke-width="3.2"/>
<circle clip-path="url(#clip702)" cx="481.326" cy="87.9763" r="14.4" fill="#009af9" fill-rule="evenodd" fill-opacity="1" stroke="#000000" stroke-opacity="1" stroke-width="3.2"/>
<circle clip-path="url(#clip702)" cx="707.617" cy="87.9763" r="14.4" fill="#009af9" fill-rule="evenodd" fill-opacity="1" stroke="#000000" stroke-opacity="1" stroke-width="3.2"/>
<circle clip-path="url(#clip702)" cx="933.909" cy="87.9763" r="14.4" fill="#009af9" fill-rule="evenodd" fill-opacity="1" stroke="#000000" stroke-opacity="1" stroke-width="3.2"/>
<circle clip-path="url(#clip702)" cx="1160.2" cy="87.9763" r="14.4" fill="#009af9" fill-rule="evenodd" fill-opacity="1" stroke="#000000" stroke-opacity="1" stroke-width="3.2"/>
<circle clip-path="url(#clip702)" cx="1386.49" cy="87.9763" r="14.4" fill="#009af9" fill-rule="evenodd" fill-opacity="1" stroke="#000000" stroke-opacity="1" stroke-width="3.2"/>
<circle clip-path="url(#clip702)" cx="1612.78" cy="87.9763" r="14.4" fill="#009af9" fill-rule="evenodd" fill-opacity="1" stroke="#000000" stroke-opacity="1" stroke-width="3.2"/>
<circle clip-path="url(#clip702)" cx="1839.07" cy="87.9763" r="14.4" fill="#009af9" fill-rule="evenodd" fill-opacity="1" stroke="#000000" stroke-opacity="1" stroke-width="3.2"/>
<circle clip-path="url(#clip702)" cx="2065.37" cy="87.9763" r="14.4" fill="#009af9" fill-rule="evenodd" fill-opacity="1" stroke="#000000" stroke-opacity="1" stroke-width="3.2"/>
<circle clip-path="url(#clip702)" cx="2291.66" cy="87.9763" r="14.4" fill="#009af9" fill-rule="evenodd" fill-opacity="1" stroke="#000000" stroke-opacity="1" stroke-width="3.2"/>
<circle clip-path="url(#clip702)" cx="255.035" cy="238.836" r="14.4" fill="#009af9" fill-rule="evenodd" fill-opacity="1" stroke="#000000" stroke-opacity="1" stroke-width="3.2"/>
<circle clip-path="url(#clip702)" cx="481.326" cy="238.836" r="14.4" fill="#009af9" fill-rule="evenodd" fill-opacity="1" stroke="#000000" stroke-opacity="1" stroke-width="3.2"/>
<circle clip-path="url(#clip702)" cx="707.617" cy="238.836" r="14.4" fill="#009af9" fill-rule="evenodd" fill-opacity="1" stroke="#000000" stroke-opacity="1" stroke-width="3.2"/>
<circle clip-path="url(#clip702)" cx="933.909" cy="238.836" r="14.4" fill="#009af9" fill-rule="evenodd" fill-opacity="1" stroke="#000000" stroke-opacity="1" stroke-width="3.2"/>
<circle clip-path="url(#clip702)" cx="1160.2" cy="238.836" r="14.4" fill="#009af9" fill-rule="evenodd" fill-opacity="1" stroke="#000000" stroke-opacity="1" stroke-width="3.2"/>
<circle clip-path="url(#clip702)" cx="1386.49" cy="238.836" r="14.4" fill="#009af9" fill-rule="evenodd" fill-opacity="1" stroke="#000000" stroke-opacity="1" stroke-width="3.2"/>
<circle clip-path="url(#clip702)" cx="1612.78" cy="238.836" r="14.4" fill="#009af9" fill-rule="evenodd" fill-opacity="1" stroke="#000000" stroke-opacity="1" stroke-width="3.2"/>
<circle clip-path="url(#clip702)" cx="1839.07" cy="238.836" r="14.4" fill="#009af9" fill-rule="evenodd" fill-opacity="1" stroke="#000000" stroke-opacity="1" stroke-width="3.2"/>
<circle clip-path="url(#clip702)" cx="2065.37" cy="238.836" r="14.4" fill="#009af9" fill-rule="evenodd" fill-opacity="1" stroke="#000000" stroke-opacity="1" stroke-width="3.2"/>
<circle clip-path="url(#clip702)" cx="2291.66" cy="238.836" r="14.4" fill="#009af9" fill-rule="evenodd" fill-opacity="1" stroke="#000000" stroke-opacity="1" stroke-width="3.2"/>
<circle clip-path="url(#clip702)" cx="255.035" cy="389.696" r="14.4" fill="#009af9" fill-rule="evenodd" fill-opacity="1" stroke="#000000" stroke-opacity="1" stroke-width="3.2"/>
<circle clip-path="url(#clip702)" cx="481.326" cy="389.696" r="14.4" fill="#009af9" fill-rule="evenodd" fill-opacity="1" stroke="#000000" stroke-opacity="1" stroke-width="3.2"/>
<circle clip-path="url(#clip702)" cx="707.617" cy="389.696" r="14.4" fill="#009af9" fill-rule="evenodd" fill-opacity="1" stroke="#000000" stroke-opacity="1" stroke-width="3.2"/>
<circle clip-path="url(#clip702)" cx="933.909" cy="389.696" r="14.4" fill="#009af9" fill-rule="evenodd" fill-opacity="1" stroke="#000000" stroke-opacity="1" stroke-width="3.2"/>
<circle clip-path="url(#clip702)" cx="1160.2" cy="389.696" r="14.4" fill="#009af9" fill-rule="evenodd" fill-opacity="1" stroke="#000000" stroke-opacity="1" stroke-width="3.2"/>
<circle clip-path="url(#clip702)" cx="1386.49" cy="389.696" r="14.4" fill="#009af9" fill-rule="evenodd" fill-opacity="1" stroke="#000000" stroke-opacity="1" stroke-width="3.2"/>
<circle clip-path="url(#clip702)" cx="1612.78" cy="389.696" r="14.4" fill="#009af9" fill-rule="evenodd" fill-opacity="1" stroke="#000000" stroke-opacity="1" stroke-width="3.2"/>
<circle clip-path="url(#clip702)" cx="1839.07" cy="389.696" r="14.4" fill="#009af9" fill-rule="evenodd" fill-opacity="1" stroke="#000000" stroke-opacity="1" stroke-width="3.2"/>
<circle clip-path="url(#clip702)" cx="2065.37" cy="389.696" r="14.4" fill="#009af9" fill-rule="evenodd" fill-opacity="1" stroke="#000000" stroke-opacity="1" stroke-width="3.2"/>
<circle clip-path="url(#clip702)" cx="2291.66" cy="389.696" r="14.4" fill="#009af9" fill-rule="evenodd" fill-opacity="1" stroke="#000000" stroke-opacity="1" stroke-width="3.2"/>
<circle clip-path="url(#clip702)" cx="255.035" cy="540.556" r="14.4" fill="#009af9" fill-rule="evenodd" fill-opacity="1" stroke="#000000" stroke-opacity="1" stroke-width="3.2"/>
<circle clip-path="url(#clip702)" cx="481.326" cy="540.556" r="14.4" fill="#009af9" fill-rule="evenodd" fill-opacity="1" stroke="#000000" stroke-opacity="1" stroke-width="3.2"/>
<circle clip-path="url(#clip702)" cx="707.617" cy="540.556" r="14.4" fill="#009af9" fill-rule="evenodd" fill-opacity="1" stroke="#000000" stroke-opacity="1" stroke-width="3.2"/>
<circle clip-path="url(#clip702)" cx="933.909" cy="540.556" r="14.4" fill="#009af9" fill-rule="evenodd" fill-opacity="1" stroke="#000000" stroke-opacity="1" stroke-width="3.2"/>
<circle clip-path="url(#clip702)" cx="1160.2" cy="540.556" r="14.4" fill="#009af9" fill-rule="evenodd" fill-opacity="1" stroke="#000000" stroke-opacity="1" stroke-width="3.2"/>
<circle clip-path="url(#clip702)" cx="1386.49" cy="540.556" r="14.4" fill="#009af9" fill-rule="evenodd" fill-opacity="1" stroke="#000000" stroke-opacity="1" stroke-width="3.2"/>
<circle clip-path="url(#clip702)" cx="1612.78" cy="540.556" r="14.4" fill="#009af9" fill-rule="evenodd" fill-opacity="1" stroke="#000000" stroke-opacity="1" stroke-width="3.2"/>
<circle clip-path="url(#clip702)" cx="1839.07" cy="540.556" r="14.4" fill="#009af9" fill-rule="evenodd" fill-opacity="1" stroke="#000000" stroke-opacity="1" stroke-width="3.2"/>
<circle clip-path="url(#clip702)" cx="2065.37" cy="540.556" r="14.4" fill="#009af9" fill-rule="evenodd" fill-opacity="1" stroke="#000000" stroke-opacity="1" stroke-width="3.2"/>
<circle clip-path="url(#clip702)" cx="2291.66" cy="540.556" r="14.4" fill="#009af9" fill-rule="evenodd" fill-opacity="1" stroke="#000000" stroke-opacity="1" stroke-width="3.2"/>
<circle clip-path="url(#clip702)" cx="255.035" cy="691.416" r="14.4" fill="#009af9" fill-rule="evenodd" fill-opacity="1" stroke="#000000" stroke-opacity="1" stroke-width="3.2"/>
<circle clip-path="url(#clip702)" cx="481.326" cy="691.416" r="14.4" fill="#009af9" fill-rule="evenodd" fill-opacity="1" stroke="#000000" stroke-opacity="1" stroke-width="3.2"/>
<circle clip-path="url(#clip702)" cx="707.617" cy="691.416" r="14.4" fill="#009af9" fill-rule="evenodd" fill-opacity="1" stroke="#000000" stroke-opacity="1" stroke-width="3.2"/>
<circle clip-path="url(#clip702)" cx="933.909" cy="691.416" r="14.4" fill="#009af9" fill-rule="evenodd" fill-opacity="1" stroke="#000000" stroke-opacity="1" stroke-width="3.2"/>
<circle clip-path="url(#clip702)" cx="1160.2" cy="691.416" r="14.4" fill="#009af9" fill-rule="evenodd" fill-opacity="1" stroke="#000000" stroke-opacity="1" stroke-width="3.2"/>
<circle clip-path="url(#clip702)" cx="1386.49" cy="691.416" r="14.4" fill="#009af9" fill-rule="evenodd" fill-opacity="1" stroke="#000000" stroke-opacity="1" stroke-width="3.2"/>
<circle clip-path="url(#clip702)" cx="1612.78" cy="691.416" r="14.4" fill="#009af9" fill-rule="evenodd" fill-opacity="1" stroke="#000000" stroke-opacity="1" stroke-width="3.2"/>
<circle clip-path="url(#clip702)" cx="1839.07" cy="691.416" r="14.4" fill="#009af9" fill-rule="evenodd" fill-opacity="1" stroke="#000000" stroke-opacity="1" stroke-width="3.2"/>
<circle clip-path="url(#clip702)" cx="2065.37" cy="691.416" r="14.4" fill="#009af9" fill-rule="evenodd" fill-opacity="1" stroke="#000000" stroke-opacity="1" stroke-width="3.2"/>
<circle clip-path="url(#clip702)" cx="2291.66" cy="691.416" r="14.4" fill="#009af9" fill-rule="evenodd" fill-opacity="1" stroke="#000000" stroke-opacity="1" stroke-width="3.2"/>
<circle clip-path="url(#clip702)" cx="255.035" cy="842.276" r="14.4" fill="#009af9" fill-rule="evenodd" fill-opacity="1" stroke="#000000" stroke-opacity="1" stroke-width="3.2"/>
<circle clip-path="url(#clip702)" cx="481.326" cy="842.276" r="14.4" fill="#009af9" fill-rule="evenodd" fill-opacity="1" stroke="#000000" stroke-opacity="1" stroke-width="3.2"/>
<circle clip-path="url(#clip702)" cx="707.617" cy="842.276" r="14.4" fill="#009af9" fill-rule="evenodd" fill-opacity="1" stroke="#000000" stroke-opacity="1" stroke-width="3.2"/>
<circle clip-path="url(#clip702)" cx="933.909" cy="842.276" r="14.4" fill="#009af9" fill-rule="evenodd" fill-opacity="1" stroke="#000000" stroke-opacity="1" stroke-width="3.2"/>
<circle clip-path="url(#clip702)" cx="1160.2" cy="842.276" r="14.4" fill="#009af9" fill-rule="evenodd" fill-opacity="1" stroke="#000000" stroke-opacity="1" stroke-width="3.2"/>
<circle clip-path="url(#clip702)" cx="1386.49" cy="842.276" r="14.4" fill="#009af9" fill-rule="evenodd" fill-opacity="1" stroke="#000000" stroke-opacity="1" stroke-width="3.2"/>
<circle clip-path="url(#clip702)" cx="1612.78" cy="842.276" r="14.4" fill="#009af9" fill-rule="evenodd" fill-opacity="1" stroke="#000000" stroke-opacity="1" stroke-width="3.2"/>
<circle clip-path="url(#clip702)" cx="1839.07" cy="842.276" r="14.4" fill="#009af9" fill-rule="evenodd" fill-opacity="1" stroke="#000000" stroke-opacity="1" stroke-width="3.2"/>
<circle clip-path="url(#clip702)" cx="2065.37" cy="842.276" r="14.4" fill="#009af9" fill-rule="evenodd" fill-opacity="1" stroke="#000000" stroke-opacity="1" stroke-width="3.2"/>
<circle clip-path="url(#clip702)" cx="2291.66" cy="842.276" r="14.4" fill="#009af9" fill-rule="evenodd" fill-opacity="1" stroke="#000000" stroke-opacity="1" stroke-width="3.2"/>
<circle clip-path="url(#clip702)" cx="255.035" cy="993.136" r="14.4" fill="#009af9" fill-rule="evenodd" fill-opacity="1" stroke="#000000" stroke-opacity="1" stroke-width="3.2"/>
<circle clip-path="url(#clip702)" cx="481.326" cy="993.136" r="14.4" fill="#009af9" fill-rule="evenodd" fill-opacity="1" stroke="#000000" stroke-opacity="1" stroke-width="3.2"/>
<circle clip-path="url(#clip702)" cx="707.617" cy="993.136" r="14.4" fill="#009af9" fill-rule="evenodd" fill-opacity="1" stroke="#000000" stroke-opacity="1" stroke-width="3.2"/>
<circle clip-path="url(#clip702)" cx="933.909" cy="993.136" r="14.4" fill="#009af9" fill-rule="evenodd" fill-opacity="1" stroke="#000000" stroke-opacity="1" stroke-width="3.2"/>
<circle clip-path="url(#clip702)" cx="1160.2" cy="993.136" r="14.4" fill="#009af9" fill-rule="evenodd" fill-opacity="1" stroke="#000000" stroke-opacity="1" stroke-width="3.2"/>
<circle clip-path="url(#clip702)" cx="1386.49" cy="993.136" r="14.4" fill="#009af9" fill-rule="evenodd" fill-opacity="1" stroke="#000000" stroke-opacity="1" stroke-width="3.2"/>
<circle clip-path="url(#clip702)" cx="1612.78" cy="993.136" r="14.4" fill="#009af9" fill-rule="evenodd" fill-opacity="1" stroke="#000000" stroke-opacity="1" stroke-width="3.2"/>
<circle clip-path="url(#clip702)" cx="1839.07" cy="993.136" r="14.4" fill="#009af9" fill-rule="evenodd" fill-opacity="1" stroke="#000000" stroke-opacity="1" stroke-width="3.2"/>
<circle clip-path="url(#clip702)" cx="2065.37" cy="993.136" r="14.4" fill="#009af9" fill-rule="evenodd" fill-opacity="1" stroke="#000000" stroke-opacity="1" stroke-width="3.2"/>
<circle clip-path="url(#clip702)" cx="2291.66" cy="993.136" r="14.4" fill="#009af9" fill-rule="evenodd" fill-opacity="1" stroke="#000000" stroke-opacity="1" stroke-width="3.2"/>
<circle clip-path="url(#clip702)" cx="255.035" cy="1144" r="14.4" fill="#009af9" fill-rule="evenodd" fill-opacity="1" stroke="#000000" stroke-opacity="1" stroke-width="3.2"/>
<circle clip-path="url(#clip702)" cx="481.326" cy="1144" r="14.4" fill="#009af9" fill-rule="evenodd" fill-opacity="1" stroke="#000000" stroke-opacity="1" stroke-width="3.2"/>
<circle clip-path="url(#clip702)" cx="707.617" cy="1144" r="14.4" fill="#009af9" fill-rule="evenodd" fill-opacity="1" stroke="#000000" stroke-opacity="1" stroke-width="3.2"/>
<circle clip-path="url(#clip702)" cx="933.909" cy="1144" r="14.4" fill="#009af9" fill-rule="evenodd" fill-opacity="1" stroke="#000000" stroke-opacity="1" stroke-width="3.2"/>
<circle clip-path="url(#clip702)" cx="1160.2" cy="1144" r="14.4" fill="#009af9" fill-rule="evenodd" fill-opacity="1" stroke="#000000" stroke-opacity="1" stroke-width="3.2"/>
<circle clip-path="url(#clip702)" cx="1386.49" cy="1144" r="14.4" fill="#009af9" fill-rule="evenodd" fill-opacity="1" stroke="#000000" stroke-opacity="1" stroke-width="3.2"/>
<circle clip-path="url(#clip702)" cx="1612.78" cy="1144" r="14.4" fill="#009af9" fill-rule="evenodd" fill-opacity="1" stroke="#000000" stroke-opacity="1" stroke-width="3.2"/>
<circle clip-path="url(#clip702)" cx="1839.07" cy="1144" r="14.4" fill="#009af9" fill-rule="evenodd" fill-opacity="1" stroke="#000000" stroke-opacity="1" stroke-width="3.2"/>
<circle clip-path="url(#clip702)" cx="2065.37" cy="1144" r="14.4" fill="#009af9" fill-rule="evenodd" fill-opacity="1" stroke="#000000" stroke-opacity="1" stroke-width="3.2"/>
<circle clip-path="url(#clip702)" cx="2291.66" cy="1144" r="14.4" fill="#009af9" fill-rule="evenodd" fill-opacity="1" stroke="#000000" stroke-opacity="1" stroke-width="3.2"/>
<circle clip-path="url(#clip702)" cx="255.035" cy="1294.86" r="14.4" fill="#009af9" fill-rule="evenodd" fill-opacity="1" stroke="#000000" stroke-opacity="1" stroke-width="3.2"/>
<circle clip-path="url(#clip702)" cx="481.326" cy="1294.86" r="14.4" fill="#009af9" fill-rule="evenodd" fill-opacity="1" stroke="#000000" stroke-opacity="1" stroke-width="3.2"/>
<circle clip-path="url(#clip702)" cx="707.617" cy="1294.86" r="14.4" fill="#009af9" fill-rule="evenodd" fill-opacity="1" stroke="#000000" stroke-opacity="1" stroke-width="3.2"/>
<circle clip-path="url(#clip702)" cx="933.909" cy="1294.86" r="14.4" fill="#009af9" fill-rule="evenodd" fill-opacity="1" stroke="#000000" stroke-opacity="1" stroke-width="3.2"/>
<circle clip-path="url(#clip702)" cx="1160.2" cy="1294.86" r="14.4" fill="#009af9" fill-rule="evenodd" fill-opacity="1" stroke="#000000" stroke-opacity="1" stroke-width="3.2"/>
<circle clip-path="url(#clip702)" cx="1386.49" cy="1294.86" r="14.4" fill="#009af9" fill-rule="evenodd" fill-opacity="1" stroke="#000000" stroke-opacity="1" stroke-width="3.2"/>
<circle clip-path="url(#clip702)" cx="1612.78" cy="1294.86" r="14.4" fill="#009af9" fill-rule="evenodd" fill-opacity="1" stroke="#000000" stroke-opacity="1" stroke-width="3.2"/>
<circle clip-path="url(#clip702)" cx="1839.07" cy="1294.86" r="14.4" fill="#009af9" fill-rule="evenodd" fill-opacity="1" stroke="#000000" stroke-opacity="1" stroke-width="3.2"/>
<circle clip-path="url(#clip702)" cx="2065.37" cy="1294.86" r="14.4" fill="#009af9" fill-rule="evenodd" fill-opacity="1" stroke="#000000" stroke-opacity="1" stroke-width="3.2"/>
<circle clip-path="url(#clip702)" cx="2291.66" cy="1294.86" r="14.4" fill="#009af9" fill-rule="evenodd" fill-opacity="1" stroke="#000000" stroke-opacity="1" stroke-width="3.2"/>
<circle clip-path="url(#clip702)" cx="255.035" cy="1445.72" r="14.4" fill="#009af9" fill-rule="evenodd" fill-opacity="1" stroke="#000000" stroke-opacity="1" stroke-width="3.2"/>
<circle clip-path="url(#clip702)" cx="481.326" cy="1445.72" r="14.4" fill="#009af9" fill-rule="evenodd" fill-opacity="1" stroke="#000000" stroke-opacity="1" stroke-width="3.2"/>
<circle clip-path="url(#clip702)" cx="707.617" cy="1445.72" r="14.4" fill="#009af9" fill-rule="evenodd" fill-opacity="1" stroke="#000000" stroke-opacity="1" stroke-width="3.2"/>
<circle clip-path="url(#clip702)" cx="933.909" cy="1445.72" r="14.4" fill="#009af9" fill-rule="evenodd" fill-opacity="1" stroke="#000000" stroke-opacity="1" stroke-width="3.2"/>
<circle clip-path="url(#clip702)" cx="1160.2" cy="1445.72" r="14.4" fill="#009af9" fill-rule="evenodd" fill-opacity="1" stroke="#000000" stroke-opacity="1" stroke-width="3.2"/>
<circle clip-path="url(#clip702)" cx="1386.49" cy="1445.72" r="14.4" fill="#009af9" fill-rule="evenodd" fill-opacity="1" stroke="#000000" stroke-opacity="1" stroke-width="3.2"/>
<circle clip-path="url(#clip702)" cx="1612.78" cy="1445.72" r="14.4" fill="#009af9" fill-rule="evenodd" fill-opacity="1" stroke="#000000" stroke-opacity="1" stroke-width="3.2"/>
<circle clip-path="url(#clip702)" cx="1839.07" cy="1445.72" r="14.4" fill="#009af9" fill-rule="evenodd" fill-opacity="1" stroke="#000000" stroke-opacity="1" stroke-width="3.2"/>
<circle clip-path="url(#clip702)" cx="2065.37" cy="1445.72" r="14.4" fill="#009af9" fill-rule="evenodd" fill-opacity="1" stroke="#000000" stroke-opacity="1" stroke-width="3.2"/>
<circle clip-path="url(#clip702)" cx="2291.66" cy="1445.72" r="14.4" fill="#009af9" fill-rule="evenodd" fill-opacity="1" stroke="#000000" stroke-opacity="1" stroke-width="3.2"/>
<path clip-path="url(#clip700)" d="
M2012.48 198.898 L2280.8 198.898 L2280.8 95.2176 L2012.48 95.2176  Z
  " fill="#ffffff" fill-rule="evenodd" fill-opacity="1"/>
<polyline clip-path="url(#clip700)" style="stroke:#000000; stroke-linecap:round; stroke-linejoin:round; stroke-width:4; stroke-opacity:1; fill:none" points="
  2012.48,198.898 2280.8,198.898 2280.8,95.2176 2012.48,95.2176 2012.48,198.898 
  "/>
<circle clip-path="url(#clip700)" cx="2108.43" cy="147.058" r="23.04" fill="#009af9" fill-rule="evenodd" fill-opacity="1" stroke="#000000" stroke-opacity="1" stroke-width="5.12"/>
<path clip-path="url(#clip700)" d="M2218.22 166.745 Q2216.42 171.375 2214.7 172.787 Q2212.99 174.199 2210.12 174.199 L2206.72 174.199 L2206.72 170.634 L2209.22 170.634 Q2210.98 170.634 2211.95 169.8 Q2212.92 168.967 2214.1 165.865 L2214.86 163.921 L2204.38 138.412 L2208.89 138.412 L2216.99 158.689 L2225.1 138.412 L2229.61 138.412 L2218.22 166.745 Z" fill="#000000" fill-rule="evenodd" fill-opacity="1" /><path clip-path="url(#clip700)" d="M2236.9 160.402 L2244.54 160.402 L2244.54 134.037 L2236.23 135.703 L2236.23 131.444 L2244.49 129.778 L2249.17 129.778 L2249.17 160.402 L2256.81 160.402 L2256.81 164.338 L2236.9 164.338 L2236.9 160.402 Z" fill="#000000" fill-rule="evenodd" fill-opacity="1" /></svg>
