<?xml version="1.0" encoding="utf-8"?>
<svg xmlns="http://www.w3.org/2000/svg" xmlns:xlink="http://www.w3.org/1999/xlink" width="600" height="400" viewBox="0 0 2400 1600">
<defs>
  <clipPath id="clip940">
    <rect x="0" y="0" width="2400" height="1600"/>
  </clipPath>
</defs>
<path clip-path="url(#clip940)" d="
M0 1600 L2400 1600 L2400 0 L0 0  Z
  " fill="#ffffff" fill-rule="evenodd" fill-opacity="1"/>
<defs>
  <clipPath id="clip941">
    <rect x="480" y="0" width="1681" height="1600"/>
  </clipPath>
</defs>
<path clip-path="url(#clip940)" d="
M193.936 1486.45 L2352.76 1486.45 L2352.76 47.2441 L193.936 47.2441  Z
  " fill="#ffffff" fill-rule="evenodd" fill-opacity="1"/>
<defs>
  <clipPath id="clip942">
    <rect x="193" y="47" width="2160" height="1440"/>
  </clipPath>
</defs>
<polyline clip-path="url(#clip942)" style="stroke:#000000; stroke-linecap:round; stroke-linejoin:round; stroke-width:2; stroke-opacity:0.1; fill:none" points="
  255.035,1486.45 255.035,47.2441 
  "/>
<polyline clip-path="url(#clip942)" style="stroke:#000000; stroke-linecap:round; stroke-linejoin:round; stroke-width:2; stroke-opacity:0.1; fill:none" points="
  764.19,1486.45 764.19,47.2441 
  "/>
<polyline clip-path="url(#clip942)" style="stroke:#000000; stroke-linecap:round; stroke-linejoin:round; stroke-width:2; stroke-opacity:0.1; fill:none" points="
  1273.35,1486.45 1273.35,47.2441 
  "/>
<polyline clip-path="url(#clip942)" style="stroke:#000000; stroke-linecap:round; stroke-linejoin:round; stroke-width:2; stroke-opacity:0.1; fill:none" points="
  1782.5,1486.45 1782.5,47.2441 
  "/>
<polyline clip-path="url(#clip942)" style="stroke:#000000; stroke-linecap:round; stroke-linejoin:round; stroke-width:2; stroke-opacity:0.1; fill:none" points="
  2291.66,1486.45 2291.66,47.2441 
  "/>
<polyline clip-path="url(#clip940)" style="stroke:#000000; stroke-linecap:round; stroke-linejoin:round; stroke-width:4; stroke-opacity:1; fill:none" points="
  193.936,1486.45 2352.76,1486.45 
  "/>
<polyline clip-path="url(#clip940)" style="stroke:#000000; stroke-linecap:round; stroke-linejoin:round; stroke-width:4; stroke-opacity:1; fill:none" points="
  255.035,1486.45 255.035,1467.55 
  "/>
<polyline clip-path="url(#clip940)" style="stroke:#000000; stroke-linecap:round; stroke-linejoin:round; stroke-width:4; stroke-opacity:1; fill:none" points="
  764.19,1486.45 764.19,1467.55 
  "/>
<polyline clip-path="url(#clip940)" style="stroke:#000000; stroke-linecap:round; stroke-linejoin:round; stroke-width:4; stroke-opacity:1; fill:none" points="
  1273.35,1486.45 1273.35,1467.55 
  "/>
<polyline clip-path="url(#clip940)" style="stroke:#000000; stroke-linecap:round; stroke-linejoin:round; stroke-width:4; stroke-opacity:1; fill:none" points="
  1782.5,1486.45 1782.5,1467.55 
  "/>
<polyline clip-path="url(#clip940)" style="stroke:#000000; stroke-linecap:round; stroke-linejoin:round; stroke-width:4; stroke-opacity:1; fill:none" points="
  2291.66,1486.45 2291.66,1467.55 
  "/>
<path clip-path="url(#clip940)" d="M201.563 1532.02 L231.239 1532.02 L231.239 1535.95 L201.563 1535.95 L201.563 1532.02 Z" fill="#000000" fill-rule="evenodd" fill-opacity="1" /><path clip-path="url(#clip940)" d="M242.141 1544.91 L249.78 1544.91 L249.78 1518.55 L241.47 1520.21 L241.47 1515.95 L249.734 1514.29 L254.41 1514.29 L254.41 1544.91 L262.049 1544.91 L262.049 1548.85 L242.141 1548.85 L242.141 1544.91 Z" fill="#000000" fill-rule="evenodd" fill-opacity="1" /><path clip-path="url(#clip940)" d="M271.493 1542.97 L276.377 1542.97 L276.377 1548.85 L271.493 1548.85 L271.493 1542.97 Z" fill="#000000" fill-rule="evenodd" fill-opacity="1" /><path clip-path="url(#clip940)" d="M296.562 1517.37 Q292.951 1517.37 291.122 1520.93 Q289.317 1524.47 289.317 1531.6 Q289.317 1538.71 291.122 1542.27 Q292.951 1545.82 296.562 1545.82 Q300.196 1545.82 302.002 1542.27 Q303.831 1538.71 303.831 1531.6 Q303.831 1524.47 302.002 1520.93 Q300.196 1517.37 296.562 1517.37 M296.562 1513.66 Q302.372 1513.66 305.428 1518.27 Q308.507 1522.85 308.507 1531.6 Q308.507 1540.33 305.428 1544.94 Q302.372 1549.52 296.562 1549.52 Q290.752 1549.52 287.673 1544.94 Q284.618 1540.33 284.618 1531.6 Q284.618 1522.85 287.673 1518.27 Q290.752 1513.66 296.562 1513.66 Z" fill="#000000" fill-rule="evenodd" fill-opacity="1" /><path clip-path="url(#clip940)" d="M711.216 1532.02 L740.892 1532.02 L740.892 1535.95 L711.216 1535.95 L711.216 1532.02 Z" fill="#000000" fill-rule="evenodd" fill-opacity="1" /><path clip-path="url(#clip940)" d="M760.984 1517.37 Q757.373 1517.37 755.545 1520.93 Q753.739 1524.47 753.739 1531.6 Q753.739 1538.71 755.545 1542.27 Q757.373 1545.82 760.984 1545.82 Q764.619 1545.82 766.424 1542.27 Q768.253 1538.71 768.253 1531.6 Q768.253 1524.47 766.424 1520.93 Q764.619 1517.37 760.984 1517.37 M760.984 1513.66 Q766.794 1513.66 769.85 1518.27 Q772.929 1522.85 772.929 1531.6 Q772.929 1540.33 769.85 1544.94 Q766.794 1549.52 760.984 1549.52 Q755.174 1549.52 752.095 1544.94 Q749.04 1540.33 749.04 1531.6 Q749.04 1522.85 752.095 1518.27 Q755.174 1513.66 760.984 1513.66 Z" fill="#000000" fill-rule="evenodd" fill-opacity="1" /><path clip-path="url(#clip940)" d="M781.146 1542.97 L786.03 1542.97 L786.03 1548.85 L781.146 1548.85 L781.146 1542.97 Z" fill="#000000" fill-rule="evenodd" fill-opacity="1" /><path clip-path="url(#clip940)" d="M796.262 1514.29 L814.618 1514.29 L814.618 1518.22 L800.544 1518.22 L800.544 1526.7 Q801.563 1526.35 802.581 1526.19 Q803.6 1526 804.618 1526 Q810.405 1526 813.785 1529.17 Q817.165 1532.34 817.165 1537.76 Q817.165 1543.34 813.692 1546.44 Q810.22 1549.52 803.901 1549.52 Q801.725 1549.52 799.456 1549.15 Q797.211 1548.78 794.804 1548.04 L794.804 1543.34 Q796.887 1544.47 799.109 1545.03 Q801.331 1545.58 803.808 1545.58 Q807.813 1545.58 810.151 1543.48 Q812.489 1541.37 812.489 1537.76 Q812.489 1534.15 810.151 1532.04 Q807.813 1529.94 803.808 1529.94 Q801.933 1529.94 800.058 1530.35 Q798.206 1530.77 796.262 1531.65 L796.262 1514.29 Z" fill="#000000" fill-rule="evenodd" fill-opacity="1" /><path clip-path="url(#clip940)" d="M1250.73 1517.37 Q1247.12 1517.37 1245.29 1520.93 Q1243.49 1524.47 1243.49 1531.6 Q1243.49 1538.71 1245.29 1542.27 Q1247.12 1545.82 1250.73 1545.82 Q1254.36 1545.82 1256.17 1542.27 Q1258 1538.71 1258 1531.6 Q1258 1524.47 1256.17 1520.93 Q1254.36 1517.37 1250.73 1517.37 M1250.73 1513.66 Q1256.54 1513.66 1259.6 1518.27 Q1262.67 1522.85 1262.67 1531.6 Q1262.67 1540.33 1259.6 1544.94 Q1256.54 1549.52 1250.73 1549.52 Q1244.92 1549.52 1241.84 1544.94 Q1238.79 1540.33 1238.79 1531.6 Q1238.79 1522.85 1241.84 1518.27 Q1244.92 1513.66 1250.73 1513.66 Z" fill="#000000" fill-rule="evenodd" fill-opacity="1" /><path clip-path="url(#clip940)" d="M1270.89 1542.97 L1275.78 1542.97 L1275.78 1548.85 L1270.89 1548.85 L1270.89 1542.97 Z" fill="#000000" fill-rule="evenodd" fill-opacity="1" /><path clip-path="url(#clip940)" d="M1295.96 1517.37 Q1292.35 1517.37 1290.52 1520.93 Q1288.72 1524.47 1288.72 1531.6 Q1288.72 1538.71 1290.52 1542.27 Q1292.35 1545.82 1295.96 1545.82 Q1299.6 1545.82 1301.4 1542.27 Q1303.23 1538.71 1303.23 1531.6 Q1303.23 1524.47 1301.4 1520.93 Q1299.6 1517.37 1295.96 1517.37 M1295.96 1513.66 Q1301.77 1513.66 1304.83 1518.27 Q1307.91 1522.85 1307.91 1531.6 Q1307.91 1540.33 1304.83 1544.94 Q1301.77 1549.52 1295.96 1549.52 Q1290.15 1549.52 1287.07 1544.94 Q1284.02 1540.33 1284.02 1531.6 Q1284.02 1522.85 1287.07 1518.27 Q1290.15 1513.66 1295.96 1513.66 Z" fill="#000000" fill-rule="evenodd" fill-opacity="1" /><path clip-path="url(#clip940)" d="M1760.38 1517.37 Q1756.77 1517.37 1754.94 1520.93 Q1753.14 1524.47 1753.14 1531.6 Q1753.14 1538.71 1754.94 1542.27 Q1756.77 1545.82 1760.38 1545.82 Q1764.02 1545.82 1765.82 1542.27 Q1767.65 1538.71 1767.65 1531.6 Q1767.65 1524.47 1765.82 1520.93 Q1764.02 1517.37 1760.38 1517.37 M1760.38 1513.66 Q1766.19 1513.66 1769.25 1518.27 Q1772.33 1522.85 1772.33 1531.6 Q1772.33 1540.33 1769.25 1544.94 Q1766.19 1549.52 1760.38 1549.52 Q1754.57 1549.52 1751.49 1544.94 Q1748.44 1540.33 1748.44 1531.6 Q1748.44 1522.85 1751.49 1518.27 Q1754.57 1513.66 1760.38 1513.66 Z" fill="#000000" fill-rule="evenodd" fill-opacity="1" /><path clip-path="url(#clip940)" d="M1780.55 1542.97 L1785.43 1542.97 L1785.43 1548.85 L1780.55 1548.85 L1780.55 1542.97 Z" fill="#000000" fill-rule="evenodd" fill-opacity="1" /><path clip-path="url(#clip940)" d="M1795.66 1514.29 L1814.02 1514.29 L1814.02 1518.22 L1799.94 1518.22 L1799.94 1526.7 Q1800.96 1526.35 1801.98 1526.19 Q1803 1526 1804.02 1526 Q1809.8 1526 1813.18 1529.17 Q1816.56 1532.34 1816.56 1537.76 Q1816.56 1543.34 1813.09 1546.44 Q1809.62 1549.52 1803.3 1549.52 Q1801.12 1549.52 1798.86 1549.15 Q1796.61 1548.78 1794.2 1548.04 L1794.2 1543.34 Q1796.29 1544.47 1798.51 1545.03 Q1800.73 1545.58 1803.21 1545.58 Q1807.21 1545.58 1809.55 1543.48 Q1811.89 1541.37 1811.89 1537.76 Q1811.89 1534.15 1809.55 1532.04 Q1807.21 1529.94 1803.21 1529.94 Q1801.33 1529.94 1799.46 1530.35 Q1797.61 1530.77 1795.66 1531.65 L1795.66 1514.29 Z" fill="#000000" fill-rule="evenodd" fill-opacity="1" /><path clip-path="url(#clip940)" d="M2258.81 1544.91 L2266.45 1544.91 L2266.45 1518.55 L2258.14 1520.21 L2258.14 1515.95 L2266.4 1514.29 L2271.08 1514.29 L2271.08 1544.91 L2278.72 1544.91 L2278.72 1548.85 L2258.81 1548.85 L2258.81 1544.91 Z" fill="#000000" fill-rule="evenodd" fill-opacity="1" /><path clip-path="url(#clip940)" d="M2288.16 1542.97 L2293.05 1542.97 L2293.05 1548.85 L2288.16 1548.85 L2288.16 1542.97 Z" fill="#000000" fill-rule="evenodd" fill-opacity="1" /><path clip-path="url(#clip940)" d="M2313.23 1517.37 Q2309.62 1517.37 2307.79 1520.93 Q2305.99 1524.47 2305.99 1531.6 Q2305.99 1538.71 2307.79 1542.27 Q2309.62 1545.82 2313.23 1545.82 Q2316.87 1545.82 2318.67 1542.27 Q2320.5 1538.71 2320.5 1531.6 Q2320.5 1524.47 2318.67 1520.93 Q2316.87 1517.37 2313.23 1517.37 M2313.23 1513.66 Q2319.04 1513.66 2322.1 1518.27 Q2325.18 1522.85 2325.18 1531.6 Q2325.18 1540.33 2322.1 1544.94 Q2319.04 1549.52 2313.23 1549.52 Q2307.42 1549.52 2304.34 1544.94 Q2301.29 1540.33 2301.29 1531.6 Q2301.29 1522.85 2304.34 1518.27 Q2307.42 1513.66 2313.23 1513.66 Z" fill="#000000" fill-rule="evenodd" fill-opacity="1" /><polyline clip-path="url(#clip942)" style="stroke:#000000; stroke-linecap:round; stroke-linejoin:round; stroke-width:2; stroke-opacity:0.1; fill:none" points="
  193.936,1445.72 2352.76,1445.72 
  "/>
<polyline clip-path="url(#clip942)" style="stroke:#000000; stroke-linecap:round; stroke-linejoin:round; stroke-width:2; stroke-opacity:0.1; fill:none" points="
  193.936,1106.28 2352.76,1106.28 
  "/>
<polyline clip-path="url(#clip942)" style="stroke:#000000; stroke-linecap:round; stroke-linejoin:round; stroke-width:2; stroke-opacity:0.1; fill:none" points="
  193.936,766.846 2352.76,766.846 
  "/>
<polyline clip-path="url(#clip942)" style="stroke:#000000; stroke-linecap:round; stroke-linejoin:round; stroke-width:2; stroke-opacity:0.1; fill:none" points="
  193.936,427.411 2352.76,427.411 
  "/>
<polyline clip-path="url(#clip942)" style="stroke:#000000; stroke-linecap:round; stroke-linejoin:round; stroke-width:2; stroke-opacity:0.1; fill:none" points="
  193.936,87.9763 2352.76,87.9763 
  "/>
<polyline clip-path="url(#clip940)" style="stroke:#000000; stroke-linecap:round; stroke-linejoin:round; stroke-width:4; stroke-opacity:1; fill:none" points="
  193.936,1486.45 193.936,47.2441 
  "/>
<polyline clip-path="url(#clip940)" style="stroke:#000000; stroke-linecap:round; stroke-linejoin:round; stroke-width:4; stroke-opacity:1; fill:none" points="
  193.936,1445.72 212.834,1445.72 
  "/>
<polyline clip-path="url(#clip940)" style="stroke:#000000; stroke-linecap:round; stroke-linejoin:round; stroke-width:4; stroke-opacity:1; fill:none" points="
  193.936,1106.28 212.834,1106.28 
  "/>
<polyline clip-path="url(#clip940)" style="stroke:#000000; stroke-linecap:round; stroke-linejoin:round; stroke-width:4; stroke-opacity:1; fill:none" points="
  193.936,766.846 212.834,766.846 
  "/>
<polyline clip-path="url(#clip940)" style="stroke:#000000; stroke-linecap:round; stroke-linejoin:round; stroke-width:4; stroke-opacity:1; fill:none" points="
  193.936,427.411 212.834,427.411 
  "/>
<polyline clip-path="url(#clip940)" style="stroke:#000000; stroke-linecap:round; stroke-linejoin:round; stroke-width:4; stroke-opacity:1; fill:none" points="
  193.936,87.9763 212.834,87.9763 
  "/>
<path clip-path="url(#clip940)" d="M50.9921 1446.17 L80.6679 1446.17 L80.6679 1450.1 L50.9921 1450.1 L50.9921 1446.17 Z" fill="#000000" fill-rule="evenodd" fill-opacity="1" /><path clip-path="url(#clip940)" d="M91.5706 1459.06 L99.2095 1459.06 L99.2095 1432.69 L90.8993 1434.36 L90.8993 1430.1 L99.1632 1428.44 L103.839 1428.44 L103.839 1459.06 L111.478 1459.06 L111.478 1463 L91.5706 1463 L91.5706 1459.06 Z" fill="#000000" fill-rule="evenodd" fill-opacity="1" /><path clip-path="url(#clip940)" d="M120.922 1457.12 L125.807 1457.12 L125.807 1463 L120.922 1463 L120.922 1457.12 Z" fill="#000000" fill-rule="evenodd" fill-opacity="1" /><path clip-path="url(#clip940)" d="M145.992 1431.51 Q142.381 1431.51 140.552 1435.08 Q138.746 1438.62 138.746 1445.75 Q138.746 1452.86 140.552 1456.42 Q142.381 1459.96 145.992 1459.96 Q149.626 1459.96 151.431 1456.42 Q153.26 1452.86 153.26 1445.75 Q153.26 1438.62 151.431 1435.08 Q149.626 1431.51 145.992 1431.51 M145.992 1427.81 Q151.802 1427.81 154.857 1432.42 Q157.936 1437 157.936 1445.75 Q157.936 1454.48 154.857 1459.08 Q151.802 1463.67 145.992 1463.67 Q140.181 1463.67 137.103 1459.08 Q134.047 1454.48 134.047 1445.75 Q134.047 1437 137.103 1432.42 Q140.181 1427.81 145.992 1427.81 Z" fill="#000000" fill-rule="evenodd" fill-opacity="1" /><path clip-path="url(#clip940)" d="M51.9875 1106.73 L81.6633 1106.73 L81.6633 1110.67 L51.9875 1110.67 L51.9875 1106.73 Z" fill="#000000" fill-rule="evenodd" fill-opacity="1" /><path clip-path="url(#clip940)" d="M101.756 1092.08 Q98.1447 1092.08 96.316 1095.64 Q94.5104 1099.19 94.5104 1106.32 Q94.5104 1113.42 96.316 1116.99 Q98.1447 1120.53 101.756 1120.53 Q105.39 1120.53 107.196 1116.99 Q109.024 1113.42 109.024 1106.32 Q109.024 1099.19 107.196 1095.64 Q105.39 1092.08 101.756 1092.08 M101.756 1088.38 Q107.566 1088.38 110.621 1092.98 Q113.7 1097.57 113.7 1106.32 Q113.7 1115.04 110.621 1119.65 Q107.566 1124.23 101.756 1124.23 Q95.9456 1124.23 92.8669 1119.65 Q89.8114 1115.04 89.8114 1106.32 Q89.8114 1097.57 92.8669 1092.98 Q95.9456 1088.38 101.756 1088.38 Z" fill="#000000" fill-rule="evenodd" fill-opacity="1" /><path clip-path="url(#clip940)" d="M121.918 1117.68 L126.802 1117.68 L126.802 1123.56 L121.918 1123.56 L121.918 1117.68 Z" fill="#000000" fill-rule="evenodd" fill-opacity="1" /><path clip-path="url(#clip940)" d="M137.033 1089 L155.39 1089 L155.39 1092.94 L141.316 1092.94 L141.316 1101.41 Q142.334 1101.06 143.353 1100.9 Q144.371 1100.71 145.39 1100.71 Q151.177 1100.71 154.556 1103.89 Q157.936 1107.06 157.936 1112.47 Q157.936 1118.05 154.464 1121.15 Q150.992 1124.23 144.672 1124.23 Q142.496 1124.23 140.228 1123.86 Q137.982 1123.49 135.575 1122.75 L135.575 1118.05 Q137.658 1119.19 139.881 1119.74 Q142.103 1120.3 144.58 1120.3 Q148.584 1120.3 150.922 1118.19 Q153.26 1116.08 153.26 1112.47 Q153.26 1108.86 150.922 1106.76 Q148.584 1104.65 144.58 1104.65 Q142.705 1104.65 140.83 1105.07 Q138.978 1105.48 137.033 1106.36 L137.033 1089 Z" fill="#000000" fill-rule="evenodd" fill-opacity="1" /><path clip-path="url(#clip940)" d="M100.76 752.645 Q97.1493 752.645 95.3206 756.209 Q93.515 759.751 93.515 766.881 Q93.515 773.987 95.3206 777.552 Q97.1493 781.094 100.76 781.094 Q104.395 781.094 106.2 777.552 Q108.029 773.987 108.029 766.881 Q108.029 759.751 106.2 756.209 Q104.395 752.645 100.76 752.645 M100.76 748.941 Q106.571 748.941 109.626 753.547 Q112.705 758.131 112.705 766.881 Q112.705 775.608 109.626 780.214 Q106.571 784.797 100.76 784.797 Q94.9502 784.797 91.8715 780.214 Q88.816 775.608 88.816 766.881 Q88.816 758.131 91.8715 753.547 Q94.9502 748.941 100.76 748.941 Z" fill="#000000" fill-rule="evenodd" fill-opacity="1" /><path clip-path="url(#clip940)" d="M120.922 778.246 L125.807 778.246 L125.807 784.126 L120.922 784.126 L120.922 778.246 Z" fill="#000000" fill-rule="evenodd" fill-opacity="1" /><path clip-path="url(#clip940)" d="M145.992 752.645 Q142.381 752.645 140.552 756.209 Q138.746 759.751 138.746 766.881 Q138.746 773.987 140.552 777.552 Q142.381 781.094 145.992 781.094 Q149.626 781.094 151.431 777.552 Q153.26 773.987 153.26 766.881 Q153.26 759.751 151.431 756.209 Q149.626 752.645 145.992 752.645 M145.992 748.941 Q151.802 748.941 154.857 753.547 Q157.936 758.131 157.936 766.881 Q157.936 775.608 154.857 780.214 Q151.802 784.797 145.992 784.797 Q140.181 784.797 137.103 780.214 Q134.047 775.608 134.047 766.881 Q134.047 758.131 137.103 753.547 Q140.181 748.941 145.992 748.941 Z" fill="#000000" fill-rule="evenodd" fill-opacity="1" /><path clip-path="url(#clip940)" d="M101.756 413.21 Q98.1447 413.21 96.316 416.775 Q94.5104 420.316 94.5104 427.446 Q94.5104 434.552 96.316 438.117 Q98.1447 441.659 101.756 441.659 Q105.39 441.659 107.196 438.117 Q109.024 434.552 109.024 427.446 Q109.024 420.316 107.196 416.775 Q105.39 413.21 101.756 413.21 M101.756 409.506 Q107.566 409.506 110.621 414.113 Q113.7 418.696 113.7 427.446 Q113.7 436.173 110.621 440.779 Q107.566 445.362 101.756 445.362 Q95.9456 445.362 92.8669 440.779 Q89.8114 436.173 89.8114 427.446 Q89.8114 418.696 92.8669 414.113 Q95.9456 409.506 101.756 409.506 Z" fill="#000000" fill-rule="evenodd" fill-opacity="1" /><path clip-path="url(#clip940)" d="M121.918 438.812 L126.802 438.812 L126.802 444.691 L121.918 444.691 L121.918 438.812 Z" fill="#000000" fill-rule="evenodd" fill-opacity="1" /><path clip-path="url(#clip940)" d="M137.033 410.131 L155.39 410.131 L155.39 414.066 L141.316 414.066 L141.316 422.538 Q142.334 422.191 143.353 422.029 Q144.371 421.844 145.39 421.844 Q151.177 421.844 154.556 425.015 Q157.936 428.187 157.936 433.603 Q157.936 439.182 154.464 442.284 Q150.992 445.362 144.672 445.362 Q142.496 445.362 140.228 444.992 Q137.982 444.622 135.575 443.881 L135.575 439.182 Q137.658 440.316 139.881 440.872 Q142.103 441.427 144.58 441.427 Q148.584 441.427 150.922 439.321 Q153.26 437.214 153.26 433.603 Q153.26 429.992 150.922 427.886 Q148.584 425.779 144.58 425.779 Q142.705 425.779 140.83 426.196 Q138.978 426.613 137.033 427.492 L137.033 410.131 Z" fill="#000000" fill-rule="evenodd" fill-opacity="1" /><path clip-path="url(#clip940)" d="M91.5706 101.321 L99.2095 101.321 L99.2095 74.9555 L90.8993 76.6222 L90.8993 72.3629 L99.1632 70.6963 L103.839 70.6963 L103.839 101.321 L111.478 101.321 L111.478 105.256 L91.5706 105.256 L91.5706 101.321 Z" fill="#000000" fill-rule="evenodd" fill-opacity="1" /><path clip-path="url(#clip940)" d="M120.922 99.3767 L125.807 99.3767 L125.807 105.256 L120.922 105.256 L120.922 99.3767 Z" fill="#000000" fill-rule="evenodd" fill-opacity="1" /><path clip-path="url(#clip940)" d="M145.992 73.775 Q142.381 73.775 140.552 77.3398 Q138.746 80.8814 138.746 88.011 Q138.746 95.1174 140.552 98.6822 Q142.381 102.224 145.992 102.224 Q149.626 102.224 151.431 98.6822 Q153.26 95.1174 153.26 88.011 Q153.26 80.8814 151.431 77.3398 Q149.626 73.775 145.992 73.775 M145.992 70.0713 Q151.802 70.0713 154.857 74.6777 Q157.936 79.261 157.936 88.011 Q157.936 96.7378 154.857 101.344 Q151.802 105.928 145.992 105.928 Q140.181 105.928 137.103 101.344 Q134.047 96.7378 134.047 88.011 Q134.047 79.261 137.103 74.6777 Q140.181 70.0713 145.992 70.0713 Z" fill="#000000" fill-rule="evenodd" fill-opacity="1" /><circle clip-path="url(#clip942)" cx="255.035" cy="1445.72" r="14.4" fill="#000000" fill-rule="evenodd" fill-opacity="1" stroke="none"/>
<circle clip-path="url(#clip942)" cx="481.326" cy="1445.72" r="14.4" fill="#000000" fill-rule="evenodd" fill-opacity="1" stroke="none"/>
<circle clip-path="url(#clip942)" cx="707.617" cy="1445.72" r="14.4" fill="#000000" fill-rule="evenodd" fill-opacity="1" stroke="none"/>
<circle clip-path="url(#clip942)" cx="933.909" cy="1445.72" r="14.4" fill="#000000" fill-rule="evenodd" fill-opacity="1" stroke="none"/>
<circle clip-path="url(#clip942)" cx="1160.2" cy="1445.72" r="14.4" fill="#000000" fill-rule="evenodd" fill-opacity="1" stroke="none"/>
<circle clip-path="url(#clip942)" cx="1386.49" cy="1445.72" r="14.4" fill="#000000" fill-rule="evenodd" fill-opacity="1" stroke="none"/>
<circle clip-path="url(#clip942)" cx="1612.78" cy="1445.72" r="14.4" fill="#000000" fill-rule="evenodd" fill-opacity="1" stroke="none"/>
<circle clip-path="url(#clip942)" cx="1839.07" cy="1445.72" r="14.4" fill="#000000" fill-rule="evenodd" fill-opacity="1" stroke="none"/>
<circle clip-path="url(#clip942)" cx="2065.37" cy="1445.72" r="14.4" fill="#000000" fill-rule="evenodd" fill-opacity="1" stroke="none"/>
<circle clip-path="url(#clip942)" cx="2291.66" cy="1445.72" r="14.4" fill="#000000" fill-rule="evenodd" fill-opacity="1" stroke="none"/>
<circle clip-path="url(#clip942)" cx="255.035" cy="1294.86" r="14.4" fill="#000000" fill-rule="evenodd" fill-opacity="1" stroke="none"/>
<circle clip-path="url(#clip942)" cx="481.326" cy="1294.86" r="14.4" fill="#000000" fill-rule="evenodd" fill-opacity="1" stroke="none"/>
<circle clip-path="url(#clip942)" cx="707.617" cy="1294.86" r="14.4" fill="#000000" fill-rule="evenodd" fill-opacity="1" stroke="none"/>
<circle clip-path="url(#clip942)" cx="933.909" cy="1294.86" r="14.4" fill="#000000" fill-rule="evenodd" fill-opacity="1" stroke="none"/>
<circle clip-path="url(#clip942)" cx="1160.2" cy="1294.86" r="14.4" fill="#000000" fill-rule="evenodd" fill-opacity="1" stroke="none"/>
<circle clip-path="url(#clip942)" cx="1386.49" cy="1294.86" r="14.4" fill="#000000" fill-rule="evenodd" fill-opacity="1" stroke="none"/>
<circle clip-path="url(#clip942)" cx="1612.78" cy="1294.86" r="14.4" fill="#000000" fill-rule="evenodd" fill-opacity="1" stroke="none"/>
<circle clip-path="url(#clip942)" cx="1839.07" cy="1294.86" r="14.4" fill="#000000" fill-rule="evenodd" fill-opacity="1" stroke="none"/>
<circle clip-path="url(#clip942)" cx="2065.37" cy="1294.86" r="14.4" fill="#000000" fill-rule="evenodd" fill-opacity="1" stroke="none"/>
<circle clip-path="url(#clip942)" cx="2291.66" cy="1294.86" r="14.4" fill="#000000" fill-rule="evenodd" fill-opacity="1" stroke="none"/>
<circle clip-path="url(#clip942)" cx="255.035" cy="1144" r="14.4" fill="#000000" fill-rule="evenodd" fill-opacity="1" stroke="none"/>
<circle clip-path="url(#clip942)" cx="481.326" cy="1144" r="14.4" fill="#000000" fill-rule="evenodd" fill-opacity="1" stroke="none"/>
<circle clip-path="url(#clip942)" cx="707.617" cy="1144" r="14.4" fill="#000000" fill-rule="evenodd" fill-opacity="1" stroke="none"/>
<circle clip-path="url(#clip942)" cx="933.909" cy="1144" r="14.4" fill="#000000" fill-rule="evenodd" fill-opacity="1" stroke="none"/>
<circle clip-path="url(#clip942)" cx="1160.2" cy="1144" r="14.4" fill="#000000" fill-rule="evenodd" fill-opacity="1" stroke="none"/>
<circle clip-path="url(#clip942)" cx="1386.49" cy="1144" r="14.4" fill="#000000" fill-rule="evenodd" fill-opacity="1" stroke="none"/>
<circle clip-path="url(#clip942)" cx="1612.78" cy="1144" r="14.4" fill="#000000" fill-rule="evenodd" fill-opacity="1" stroke="none"/>
<circle clip-path="url(#clip942)" cx="1839.07" cy="1144" r="14.4" fill="#000000" fill-rule="evenodd" fill-opacity="1" stroke="none"/>
<circle clip-path="url(#clip942)" cx="2065.37" cy="1144" r="14.4" fill="#000000" fill-rule="evenodd" fill-opacity="1" stroke="none"/>
<circle clip-path="url(#clip942)" cx="2291.66" cy="1144" r="14.4" fill="#000000" fill-rule="evenodd" fill-opacity="1" stroke="none"/>
<circle clip-path="url(#clip942)" cx="255.035" cy="993.136" r="14.4" fill="#000000" fill-rule="evenodd" fill-opacity="1" stroke="none"/>
<circle clip-path="url(#clip942)" cx="481.326" cy="993.136" r="14.4" fill="#000000" fill-rule="evenodd" fill-opacity="1" stroke="none"/>
<circle clip-path="url(#clip942)" cx="707.617" cy="993.136" r="14.4" fill="#000000" fill-rule="evenodd" fill-opacity="1" stroke="none"/>
<circle clip-path="url(#clip942)" cx="933.909" cy="993.136" r="14.4" fill="#000000" fill-rule="evenodd" fill-opacity="1" stroke="none"/>
<circle clip-path="url(#clip942)" cx="1160.2" cy="993.136" r="14.4" fill="#000000" fill-rule="evenodd" fill-opacity="1" stroke="none"/>
<circle clip-path="url(#clip942)" cx="1386.49" cy="993.136" r="14.4" fill="#000000" fill-rule="evenodd" fill-opacity="1" stroke="none"/>
<circle clip-path="url(#clip942)" cx="1612.78" cy="993.136" r="14.4" fill="#000000" fill-rule="evenodd" fill-opacity="1" stroke="none"/>
<circle clip-path="url(#clip942)" cx="1839.07" cy="993.136" r="14.4" fill="#000000" fill-rule="evenodd" fill-opacity="1" stroke="none"/>
<circle clip-path="url(#clip942)" cx="2065.37" cy="993.136" r="14.4" fill="#000000" fill-rule="evenodd" fill-opacity="1" stroke="none"/>
<circle clip-path="url(#clip942)" cx="2291.66" cy="993.136" r="14.4" fill="#000000" fill-rule="evenodd" fill-opacity="1" stroke="none"/>
<circle clip-path="url(#clip942)" cx="255.035" cy="842.276" r="14.4" fill="#000000" fill-rule="evenodd" fill-opacity="1" stroke="none"/>
<circle clip-path="url(#clip942)" cx="481.326" cy="842.276" r="14.4" fill="#000000" fill-rule="evenodd" fill-opacity="1" stroke="none"/>
<circle clip-path="url(#clip942)" cx="707.617" cy="842.276" r="14.4" fill="#000000" fill-rule="evenodd" fill-opacity="1" stroke="none"/>
<circle clip-path="url(#clip942)" cx="933.909" cy="842.276" r="14.4" fill="#000000" fill-rule="evenodd" fill-opacity="1" stroke="none"/>
<circle clip-path="url(#clip942)" cx="1160.2" cy="842.276" r="14.4" fill="#000000" fill-rule="evenodd" fill-opacity="1" stroke="none"/>
<circle clip-path="url(#clip942)" cx="1386.49" cy="842.276" r="14.4" fill="#000000" fill-rule="evenodd" fill-opacity="1" stroke="none"/>
<circle clip-path="url(#clip942)" cx="1612.78" cy="842.276" r="14.4" fill="#000000" fill-rule="evenodd" fill-opacity="1" stroke="none"/>
<circle clip-path="url(#clip942)" cx="1839.07" cy="842.276" r="14.4" fill="#000000" fill-rule="evenodd" fill-opacity="1" stroke="none"/>
<circle clip-path="url(#clip942)" cx="2065.37" cy="842.276" r="14.4" fill="#000000" fill-rule="evenodd" fill-opacity="1" stroke="none"/>
<circle clip-path="url(#clip942)" cx="2291.66" cy="842.276" r="14.4" fill="#000000" fill-rule="evenodd" fill-opacity="1" stroke="none"/>
<circle clip-path="url(#clip942)" cx="255.035" cy="691.416" r="14.4" fill="#000000" fill-rule="evenodd" fill-opacity="1" stroke="none"/>
<circle clip-path="url(#clip942)" cx="481.326" cy="691.416" r="14.4" fill="#000000" fill-rule="evenodd" fill-opacity="1" stroke="none"/>
<circle clip-path="url(#clip942)" cx="707.617" cy="691.416" r="14.4" fill="#000000" fill-rule="evenodd" fill-opacity="1" stroke="none"/>
<circle clip-path="url(#clip942)" cx="933.909" cy="691.416" r="14.4" fill="#000000" fill-rule="evenodd" fill-opacity="1" stroke="none"/>
<circle clip-path="url(#clip942)" cx="1160.2" cy="691.416" r="14.4" fill="#000000" fill-rule="evenodd" fill-opacity="1" stroke="none"/>
<circle clip-path="url(#clip942)" cx="1386.49" cy="691.416" r="14.4" fill="#000000" fill-rule="evenodd" fill-opacity="1" stroke="none"/>
<circle clip-path="url(#clip942)" cx="1612.78" cy="691.416" r="14.4" fill="#000000" fill-rule="evenodd" fill-opacity="1" stroke="none"/>
<circle clip-path="url(#clip942)" cx="1839.07" cy="691.416" r="14.4" fill="#000000" fill-rule="evenodd" fill-opacity="1" stroke="none"/>
<circle clip-path="url(#clip942)" cx="2065.37" cy="691.416" r="14.4" fill="#000000" fill-rule="evenodd" fill-opacity="1" stroke="none"/>
<circle clip-path="url(#clip942)" cx="2291.66" cy="691.416" r="14.4" fill="#000000" fill-rule="evenodd" fill-opacity="1" stroke="none"/>
<circle clip-path="url(#clip942)" cx="255.035" cy="540.556" r="14.4" fill="#000000" fill-rule="evenodd" fill-opacity="1" stroke="none"/>
<circle clip-path="url(#clip942)" cx="481.326" cy="540.556" r="14.4" fill="#000000" fill-rule="evenodd" fill-opacity="1" stroke="none"/>
<circle clip-path="url(#clip942)" cx="707.617" cy="540.556" r="14.4" fill="#000000" fill-rule="evenodd" fill-opacity="1" stroke="none"/>
<circle clip-path="url(#clip942)" cx="933.909" cy="540.556" r="14.4" fill="#000000" fill-rule="evenodd" fill-opacity="1" stroke="none"/>
<circle clip-path="url(#clip942)" cx="1160.2" cy="540.556" r="14.4" fill="#000000" fill-rule="evenodd" fill-opacity="1" stroke="none"/>
<circle clip-path="url(#clip942)" cx="1386.49" cy="540.556" r="14.4" fill="#000000" fill-rule="evenodd" fill-opacity="1" stroke="none"/>
<circle clip-path="url(#clip942)" cx="1612.78" cy="540.556" r="14.4" fill="#000000" fill-rule="evenodd" fill-opacity="1" stroke="none"/>
<circle clip-path="url(#clip942)" cx="1839.07" cy="540.556" r="14.4" fill="#000000" fill-rule="evenodd" fill-opacity="1" stroke="none"/>
<circle clip-path="url(#clip942)" cx="2065.37" cy="540.556" r="14.4" fill="#000000" fill-rule="evenodd" fill-opacity="1" stroke="none"/>
<circle clip-path="url(#clip942)" cx="2291.66" cy="540.556" r="14.4" fill="#000000" fill-rule="evenodd" fill-opacity="1" stroke="none"/>
<circle clip-path="url(#clip942)" cx="255.035" cy="389.696" r="14.4" fill="#000000" fill-rule="evenodd" fill-opacity="1" stroke="none"/>
<circle clip-path="url(#clip942)" cx="481.326" cy="389.696" r="14.4" fill="#000000" fill-rule="evenodd" fill-opacity="1" stroke="none"/>
<circle clip-path="url(#clip942)" cx="707.617" cy="389.696" r="14.4" fill="#000000" fill-rule="evenodd" fill-opacity="1" stroke="none"/>
<circle clip-path="url(#clip942)" cx="933.909" cy="389.696" r="14.4" fill="#000000" fill-rule="evenodd" fill-opacity="1" stroke="none"/>
<circle clip-path="url(#clip942)" cx="1160.2" cy="389.696" r="14.4" fill="#000000" fill-rule="evenodd" fill-opacity="1" stroke="none"/>
<circle clip-path="url(#clip942)" cx="1386.49" cy="389.696" r="14.4" fill="#000000" fill-rule="evenodd" fill-opacity="1" stroke="none"/>
<circle clip-path="url(#clip942)" cx="1612.78" cy="389.696" r="14.4" fill="#000000" fill-rule="evenodd" fill-opacity="1" stroke="none"/>
<circle clip-path="url(#clip942)" cx="1839.07" cy="389.696" r="14.4" fill="#000000" fill-rule="evenodd" fill-opacity="1" stroke="none"/>
<circle clip-path="url(#clip942)" cx="2065.37" cy="389.696" r="14.4" fill="#000000" fill-rule="evenodd" fill-opacity="1" stroke="none"/>
<circle clip-path="url(#clip942)" cx="2291.66" cy="389.696" r="14.4" fill="#000000" fill-rule="evenodd" fill-opacity="1" stroke="none"/>
<circle clip-path="url(#clip942)" cx="255.035" cy="238.836" r="14.4" fill="#000000" fill-rule="evenodd" fill-opacity="1" stroke="none"/>
<circle clip-path="url(#clip942)" cx="481.326" cy="238.836" r="14.4" fill="#000000" fill-rule="evenodd" fill-opacity="1" stroke="none"/>
<circle clip-path="url(#clip942)" cx="707.617" cy="238.836" r="14.4" fill="#000000" fill-rule="evenodd" fill-opacity="1" stroke="none"/>
<circle clip-path="url(#clip942)" cx="933.909" cy="238.836" r="14.4" fill="#000000" fill-rule="evenodd" fill-opacity="1" stroke="none"/>
<circle clip-path="url(#clip942)" cx="1160.2" cy="238.836" r="14.4" fill="#000000" fill-rule="evenodd" fill-opacity="1" stroke="none"/>
<circle clip-path="url(#clip942)" cx="1386.49" cy="238.836" r="14.4" fill="#000000" fill-rule="evenodd" fill-opacity="1" stroke="none"/>
<circle clip-path="url(#clip942)" cx="1612.78" cy="238.836" r="14.4" fill="#000000" fill-rule="evenodd" fill-opacity="1" stroke="none"/>
<circle clip-path="url(#clip942)" cx="1839.07" cy="238.836" r="14.4" fill="#000000" fill-rule="evenodd" fill-opacity="1" stroke="none"/>
<circle clip-path="url(#clip942)" cx="2065.37" cy="238.836" r="14.4" fill="#000000" fill-rule="evenodd" fill-opacity="1" stroke="none"/>
<circle clip-path="url(#clip942)" cx="2291.66" cy="238.836" r="14.4" fill="#000000" fill-rule="evenodd" fill-opacity="1" stroke="none"/>
<circle clip-path="url(#clip942)" cx="255.035" cy="87.9763" r="14.4" fill="#000000" fill-rule="evenodd" fill-opacity="1" stroke="none"/>
<circle clip-path="url(#clip942)" cx="481.326" cy="87.9763" r="14.4" fill="#000000" fill-rule="evenodd" fill-opacity="1" stroke="none"/>
<circle clip-path="url(#clip942)" cx="707.617" cy="87.9763" r="14.4" fill="#000000" fill-rule="evenodd" fill-opacity="1" stroke="none"/>
<circle clip-path="url(#clip942)" cx="933.909" cy="87.9763" r="14.4" fill="#000000" fill-rule="evenodd" fill-opacity="1" stroke="none"/>
<circle clip-path="url(#clip942)" cx="1160.2" cy="87.9763" r="14.4" fill="#000000" fill-rule="evenodd" fill-opacity="1" stroke="none"/>
<circle clip-path="url(#clip942)" cx="1386.49" cy="87.9763" r="14.4" fill="#000000" fill-rule="evenodd" fill-opacity="1" stroke="none"/>
<circle clip-path="url(#clip942)" cx="1612.78" cy="87.9763" r="14.4" fill="#000000" fill-rule="evenodd" fill-opacity="1" stroke="none"/>
<circle clip-path="url(#clip942)" cx="1839.07" cy="87.9763" r="14.4" fill="#000000" fill-rule="evenodd" fill-opacity="1" stroke="none"/>
<circle clip-path="url(#clip942)" cx="2065.37" cy="87.9763" r="14.4" fill="#000000" fill-rule="evenodd" fill-opacity="1" stroke="none"/>
<circle clip-path="url(#clip942)" cx="2291.66" cy="87.9763" r="14.4" fill="#000000" fill-rule="evenodd" fill-opacity="1" stroke="none"/>
<circle clip-path="url(#clip942)" cx="255.035" cy="1445.72" r="14.4" fill="#800080" fill-rule="evenodd" fill-opacity="1" stroke="#000000" stroke-opacity="1" stroke-width="3.2"/>
<circle clip-path="url(#clip942)" cx="764.19" cy="1445.72" r="14.4" fill="#800080" fill-rule="evenodd" fill-opacity="1" stroke="#000000" stroke-opacity="1" stroke-width="3.2"/>
<circle clip-path="url(#clip942)" cx="1273.35" cy="1445.72" r="14.4" fill="#800080" fill-rule="evenodd" fill-opacity="1" stroke="#000000" stroke-opacity="1" stroke-width="3.2"/>
<circle clip-path="url(#clip942)" cx="1782.5" cy="1445.72" r="14.4" fill="#800080" fill-rule="evenodd" fill-opacity="1" stroke="#000000" stroke-opacity="1" stroke-width="3.2"/>
<circle clip-path="url(#clip942)" cx="2291.66" cy="1445.72" r="14.4" fill="#800080" fill-rule="evenodd" fill-opacity="1" stroke="#000000" stroke-opacity="1" stroke-width="3.2"/>
<circle clip-path="url(#clip942)" cx="255.035" cy="1106.28" r="14.4" fill="#800080" fill-rule="evenodd" fill-opacity="1" stroke="#000000" stroke-opacity="1" stroke-width="3.2"/>
<circle clip-path="url(#clip942)" cx="764.19" cy="1106.28" r="14.4" fill="#800080" fill-rule="evenodd" fill-opacity="1" stroke="#000000" stroke-opacity="1" stroke-width="3.2"/>
<circle clip-path="url(#clip942)" cx="1273.35" cy="1106.28" r="14.4" fill="#800080" fill-rule="evenodd" fill-opacity="1" stroke="#000000" stroke-opacity="1" stroke-width="3.2"/>
<circle clip-path="url(#clip942)" cx="1782.5" cy="1106.28" r="14.4" fill="#800080" fill-rule="evenodd" fill-opacity="1" stroke="#000000" stroke-opacity="1" stroke-width="3.2"/>
<circle clip-path="url(#clip942)" cx="2291.66" cy="1106.28" r="14.4" fill="#800080" fill-rule="evenodd" fill-opacity="1" stroke="#000000" stroke-opacity="1" stroke-width="3.2"/>
<circle clip-path="url(#clip942)" cx="255.035" cy="766.846" r="14.4" fill="#800080" fill-rule="evenodd" fill-opacity="1" stroke="#000000" stroke-opacity="1" stroke-width="3.2"/>
<circle clip-path="url(#clip942)" cx="764.19" cy="766.846" r="14.4" fill="#800080" fill-rule="evenodd" fill-opacity="1" stroke="#000000" stroke-opacity="1" stroke-width="3.2"/>
<circle clip-path="url(#clip942)" cx="1273.35" cy="766.846" r="14.4" fill="#800080" fill-rule="evenodd" fill-opacity="1" stroke="#000000" stroke-opacity="1" stroke-width="3.2"/>
<circle clip-path="url(#clip942)" cx="1782.5" cy="766.846" r="14.4" fill="#800080" fill-rule="evenodd" fill-opacity="1" stroke="#000000" stroke-opacity="1" stroke-width="3.2"/>
<circle clip-path="url(#clip942)" cx="2291.66" cy="766.846" r="14.4" fill="#800080" fill-rule="evenodd" fill-opacity="1" stroke="#000000" stroke-opacity="1" stroke-width="3.2"/>
<circle clip-path="url(#clip942)" cx="255.035" cy="427.411" r="14.4" fill="#800080" fill-rule="evenodd" fill-opacity="1" stroke="#000000" stroke-opacity="1" stroke-width="3.2"/>
<circle clip-path="url(#clip942)" cx="764.19" cy="427.411" r="14.4" fill="#800080" fill-rule="evenodd" fill-opacity="1" stroke="#000000" stroke-opacity="1" stroke-width="3.2"/>
<circle clip-path="url(#clip942)" cx="1273.35" cy="427.411" r="14.4" fill="#800080" fill-rule="evenodd" fill-opacity="1" stroke="#000000" stroke-opacity="1" stroke-width="3.2"/>
<circle clip-path="url(#clip942)" cx="1782.5" cy="427.411" r="14.4" fill="#800080" fill-rule="evenodd" fill-opacity="1" stroke="#000000" stroke-opacity="1" stroke-width="3.2"/>
<circle clip-path="url(#clip942)" cx="2291.66" cy="427.411" r="14.4" fill="#800080" fill-rule="evenodd" fill-opacity="1" stroke="#000000" stroke-opacity="1" stroke-width="3.2"/>
<circle clip-path="url(#clip942)" cx="255.035" cy="87.9763" r="14.4" fill="#800080" fill-rule="evenodd" fill-opacity="1" stroke="#000000" stroke-opacity="1" stroke-width="3.2"/>
<circle clip-path="url(#clip942)" cx="764.19" cy="87.9763" r="14.4" fill="#800080" fill-rule="evenodd" fill-opacity="1" stroke="#000000" stroke-opacity="1" stroke-width="3.2"/>
<circle clip-path="url(#clip942)" cx="1273.35" cy="87.9763" r="14.4" fill="#800080" fill-rule="evenodd" fill-opacity="1" stroke="#000000" stroke-opacity="1" stroke-width="3.2"/>
<circle clip-path="url(#clip942)" cx="1782.5" cy="87.9763" r="14.4" fill="#800080" fill-rule="evenodd" fill-opacity="1" stroke="#000000" stroke-opacity="1" stroke-width="3.2"/>
<circle clip-path="url(#clip942)" cx="2291.66" cy="87.9763" r="14.4" fill="#800080" fill-rule="evenodd" fill-opacity="1" stroke="#000000" stroke-opacity="1" stroke-width="3.2"/>
<path clip-path="url(#clip940)" d="
M1725.35 250.738 L2280.8 250.738 L2280.8 95.2176 L1725.35 95.2176  Z
  " fill="#ffffff" fill-rule="evenodd" fill-opacity="1"/>
<polyline clip-path="url(#clip940)" style="stroke:#000000; stroke-linecap:round; stroke-linejoin:round; stroke-width:4; stroke-opacity:1; fill:none" points="
  1725.35,250.738 2280.8,250.738 2280.8,95.2176 1725.35,95.2176 1725.35,250.738 
  "/>
<circle clip-path="url(#clip940)" cx="1821.3" cy="147.058" r="23.04" fill="#000000" fill-rule="evenodd" fill-opacity="1" stroke="none"/>
<path clip-path="url(#clip940)" d="M1938.96 148.689 L1938.96 164.338 L1934.7 164.338 L1934.7 148.828 Q1934.7 145.148 1933.27 143.319 Q1931.83 141.49 1928.96 141.49 Q1925.51 141.49 1923.52 143.69 Q1921.53 145.889 1921.53 149.685 L1921.53 164.338 L1917.25 164.338 L1917.25 138.412 L1921.53 138.412 L1921.53 142.44 Q1923.06 140.102 1925.12 138.944 Q1927.2 137.787 1929.91 137.787 Q1934.38 137.787 1936.67 140.565 Q1938.96 143.319 1938.96 148.689 Z" fill="#000000" fill-rule="evenodd" fill-opacity="1" /><path clip-path="url(#clip940)" d="M1957.5 141.398 Q1954.08 141.398 1952.09 144.083 Q1950.1 146.745 1950.1 151.398 Q1950.1 156.051 1952.06 158.736 Q1954.06 161.398 1957.5 161.398 Q1960.91 161.398 1962.9 158.713 Q1964.89 156.027 1964.89 151.398 Q1964.89 146.791 1962.9 144.106 Q1960.91 141.398 1957.5 141.398 M1957.5 137.787 Q1963.06 137.787 1966.23 141.398 Q1969.4 145.009 1969.4 151.398 Q1969.4 157.764 1966.23 161.398 Q1963.06 165.009 1957.5 165.009 Q1951.93 165.009 1948.75 161.398 Q1945.61 157.764 1945.61 151.398 Q1945.61 145.009 1948.75 141.398 Q1951.93 137.787 1957.5 137.787 Z" fill="#000000" fill-rule="evenodd" fill-opacity="1" /><path clip-path="url(#clip940)" d="M1993.52 142.347 L1993.52 128.319 L1997.78 128.319 L1997.78 164.338 L1993.52 164.338 L1993.52 160.449 Q1992.18 162.763 1990.12 163.898 Q1988.08 165.009 1985.21 165.009 Q1980.51 165.009 1977.55 161.259 Q1974.61 157.509 1974.61 151.398 Q1974.61 145.287 1977.55 141.537 Q1980.51 137.787 1985.21 137.787 Q1988.08 137.787 1990.12 138.921 Q1992.18 140.032 1993.52 142.347 M1979.01 151.398 Q1979.01 156.097 1980.93 158.782 Q1982.87 161.444 1986.25 161.444 Q1989.63 161.444 1991.58 158.782 Q1993.52 156.097 1993.52 151.398 Q1993.52 146.699 1991.58 144.037 Q1989.63 141.352 1986.25 141.352 Q1982.87 141.352 1980.93 144.037 Q1979.01 146.699 1979.01 151.398 Z" fill="#000000" fill-rule="evenodd" fill-opacity="1" /><path clip-path="url(#clip940)" d="M2028.73 150.31 L2028.73 152.393 L2009.15 152.393 Q2009.43 156.791 2011.79 159.106 Q2014.17 161.398 2018.41 161.398 Q2020.86 161.398 2023.15 160.796 Q2025.47 160.194 2027.74 158.99 L2027.74 163.018 Q2025.44 163.99 2023.04 164.5 Q2020.63 165.009 2018.15 165.009 Q2011.95 165.009 2008.31 161.398 Q2004.7 157.787 2004.7 151.629 Q2004.7 145.264 2008.13 141.537 Q2011.58 137.787 2017.41 137.787 Q2022.64 137.787 2025.68 141.166 Q2028.73 144.523 2028.73 150.31 M2024.47 149.06 Q2024.43 145.565 2022.5 143.481 Q2020.61 141.398 2017.46 141.398 Q2013.89 141.398 2011.74 143.412 Q2009.61 145.426 2009.29 149.083 L2024.47 149.06 Z" fill="#000000" fill-rule="evenodd" fill-opacity="1" /><path clip-path="url(#clip940)" d="M2050.79 128.319 L2055.05 128.319 L2055.05 164.338 L2050.79 164.338 L2050.79 128.319 Z" fill="#000000" fill-rule="evenodd" fill-opacity="1" /><path clip-path="url(#clip940)" d="M2074.01 141.398 Q2070.58 141.398 2068.59 144.083 Q2066.6 146.745 2066.6 151.398 Q2066.6 156.051 2068.57 158.736 Q2070.56 161.398 2074.01 161.398 Q2077.41 161.398 2079.4 158.713 Q2081.39 156.027 2081.39 151.398 Q2081.39 146.791 2079.4 144.106 Q2077.41 141.398 2074.01 141.398 M2074.01 137.787 Q2079.56 137.787 2082.74 141.398 Q2085.91 145.009 2085.91 151.398 Q2085.91 157.764 2082.74 161.398 Q2079.56 165.009 2074.01 165.009 Q2068.43 165.009 2065.26 161.398 Q2062.11 157.764 2062.11 151.398 Q2062.11 145.009 2065.26 141.398 Q2068.43 137.787 2074.01 137.787 Z" fill="#000000" fill-rule="evenodd" fill-opacity="1" /><path clip-path="url(#clip940)" d="M2111.62 139.407 L2111.62 143.389 Q2109.82 142.393 2107.99 141.907 Q2106.18 141.398 2104.33 141.398 Q2100.19 141.398 2097.9 144.037 Q2095.61 146.652 2095.61 151.398 Q2095.61 156.143 2097.9 158.782 Q2100.19 161.398 2104.33 161.398 Q2106.18 161.398 2107.99 160.912 Q2109.82 160.402 2111.62 159.407 L2111.62 163.342 Q2109.84 164.176 2107.92 164.592 Q2106.02 165.009 2103.87 165.009 Q2098.01 165.009 2094.56 161.328 Q2091.11 157.648 2091.11 151.398 Q2091.11 145.055 2094.59 141.421 Q2098.08 137.787 2104.15 137.787 Q2106.11 137.787 2107.99 138.203 Q2109.86 138.597 2111.62 139.407 Z" fill="#000000" fill-rule="evenodd" fill-opacity="1" /><path clip-path="url(#clip940)" d="M2130.81 151.305 Q2125.65 151.305 2123.66 152.486 Q2121.67 153.666 2121.67 156.514 Q2121.67 158.782 2123.15 160.125 Q2124.66 161.444 2127.23 161.444 Q2130.77 161.444 2132.9 158.944 Q2135.05 156.421 2135.05 152.254 L2135.05 151.305 L2130.81 151.305 M2139.31 149.546 L2139.31 164.338 L2135.05 164.338 L2135.05 160.402 Q2133.59 162.763 2131.42 163.898 Q2129.24 165.009 2126.09 165.009 Q2122.11 165.009 2119.75 162.787 Q2117.41 160.541 2117.41 156.791 Q2117.41 152.416 2120.33 150.194 Q2123.27 147.972 2129.08 147.972 L2135.05 147.972 L2135.05 147.555 Q2135.05 144.615 2133.11 143.018 Q2131.18 141.398 2127.69 141.398 Q2125.47 141.398 2123.36 141.93 Q2121.25 142.463 2119.31 143.527 L2119.31 139.592 Q2121.65 138.69 2123.85 138.25 Q2126.05 137.787 2128.13 137.787 Q2133.75 137.787 2136.53 140.703 Q2139.31 143.62 2139.31 149.546 Z" fill="#000000" fill-rule="evenodd" fill-opacity="1" /><path clip-path="url(#clip940)" d="M2152.3 131.051 L2152.3 138.412 L2161.07 138.412 L2161.07 141.722 L2152.3 141.722 L2152.3 155.796 Q2152.3 158.967 2153.15 159.87 Q2154.03 160.773 2156.69 160.773 L2161.07 160.773 L2161.07 164.338 L2156.69 164.338 Q2151.76 164.338 2149.89 162.509 Q2148.01 160.657 2148.01 155.796 L2148.01 141.722 L2144.89 141.722 L2144.89 138.412 L2148.01 138.412 L2148.01 131.051 L2152.3 131.051 Z" fill="#000000" fill-rule="evenodd" fill-opacity="1" /><path clip-path="url(#clip940)" d="M2166.67 138.412 L2170.93 138.412 L2170.93 164.338 L2166.67 164.338 L2166.67 138.412 M2166.67 128.319 L2170.93 128.319 L2170.93 133.713 L2166.67 133.713 L2166.67 128.319 Z" fill="#000000" fill-rule="evenodd" fill-opacity="1" /><path clip-path="url(#clip940)" d="M2189.89 141.398 Q2186.46 141.398 2184.47 144.083 Q2182.48 146.745 2182.48 151.398 Q2182.48 156.051 2184.45 158.736 Q2186.44 161.398 2189.89 161.398 Q2193.29 161.398 2195.28 158.713 Q2197.27 156.027 2197.27 151.398 Q2197.27 146.791 2195.28 144.106 Q2193.29 141.398 2189.89 141.398 M2189.89 137.787 Q2195.44 137.787 2198.61 141.398 Q2201.79 145.009 2201.79 151.398 Q2201.79 157.764 2198.61 161.398 Q2195.44 165.009 2189.89 165.009 Q2184.31 165.009 2181.14 161.398 Q2177.99 157.764 2177.99 151.398 Q2177.99 145.009 2181.14 141.398 Q2184.31 137.787 2189.89 137.787 Z" fill="#000000" fill-rule="evenodd" fill-opacity="1" /><path clip-path="url(#clip940)" d="M2230.4 148.689 L2230.4 164.338 L2226.14 164.338 L2226.14 148.828 Q2226.14 145.148 2224.7 143.319 Q2223.27 141.49 2220.4 141.49 Q2216.95 141.49 2214.96 143.69 Q2212.97 145.889 2212.97 149.685 L2212.97 164.338 L2208.68 164.338 L2208.68 138.412 L2212.97 138.412 L2212.97 142.44 Q2214.49 140.102 2216.55 138.944 Q2218.64 137.787 2221.35 137.787 Q2225.81 137.787 2228.1 140.565 Q2230.4 143.319 2230.4 148.689 Z" fill="#000000" fill-rule="evenodd" fill-opacity="1" /><path clip-path="url(#clip940)" d="M2255.42 139.176 L2255.42 143.203 Q2253.61 142.277 2251.67 141.815 Q2249.73 141.352 2247.64 141.352 Q2244.47 141.352 2242.87 142.324 Q2241.3 143.296 2241.3 145.24 Q2241.3 146.722 2242.43 147.578 Q2243.57 148.412 2246.99 149.176 L2248.45 149.5 Q2252.99 150.472 2254.89 152.254 Q2256.81 154.014 2256.81 157.185 Q2256.81 160.796 2253.94 162.902 Q2251.09 165.009 2246.09 165.009 Q2244.01 165.009 2241.74 164.592 Q2239.49 164.199 2236.99 163.388 L2236.99 158.99 Q2239.35 160.217 2241.65 160.842 Q2243.94 161.444 2246.18 161.444 Q2249.19 161.444 2250.81 160.426 Q2252.43 159.384 2252.43 157.509 Q2252.43 155.773 2251.25 154.847 Q2250.1 153.921 2246.14 153.064 L2244.66 152.717 Q2240.7 151.884 2238.94 150.171 Q2237.18 148.435 2237.18 145.426 Q2237.18 141.768 2239.77 139.778 Q2242.36 137.787 2247.13 137.787 Q2249.49 137.787 2251.58 138.134 Q2253.66 138.481 2255.42 139.176 Z" fill="#000000" fill-rule="evenodd" fill-opacity="1" /><circle clip-path="url(#clip940)" cx="1821.3" cy="198.898" r="23.04" fill="#800080" fill-rule="evenodd" fill-opacity="1" stroke="#000000" stroke-opacity="1" stroke-width="5.12"/>
<path clip-path="url(#clip940)" d="M1932.44 194.233 Q1931.72 193.817 1930.86 193.631 Q1930.03 193.423 1929.01 193.423 Q1925.4 193.423 1923.45 195.784 Q1921.53 198.122 1921.53 202.52 L1921.53 216.178 L1917.25 216.178 L1917.25 190.252 L1921.53 190.252 L1921.53 194.28 Q1922.87 191.918 1925.03 190.784 Q1927.18 189.627 1930.26 189.627 Q1930.7 189.627 1931.23 189.696 Q1931.76 189.743 1932.41 189.858 L1932.44 194.233 Z" fill="#000000" fill-rule="evenodd" fill-opacity="1" /><path clip-path="url(#clip940)" d="M1955.51 203.238 Q1955.51 198.539 1953.57 195.877 Q1951.65 193.192 1948.27 193.192 Q1944.89 193.192 1942.94 195.877 Q1941.02 198.539 1941.02 203.238 Q1941.02 207.937 1942.94 210.622 Q1944.89 213.284 1948.27 213.284 Q1951.65 213.284 1953.57 210.622 Q1955.51 207.937 1955.51 203.238 M1941.02 194.187 Q1942.37 191.872 1944.4 190.761 Q1946.46 189.627 1949.31 189.627 Q1954.03 189.627 1956.97 193.377 Q1959.93 197.127 1959.93 203.238 Q1959.93 209.349 1956.97 213.099 Q1954.03 216.849 1949.31 216.849 Q1946.46 216.849 1944.4 215.738 Q1942.37 214.603 1941.02 212.289 L1941.02 216.178 L1936.74 216.178 L1936.74 180.159 L1941.02 180.159 L1941.02 194.187 Z" fill="#000000" fill-rule="evenodd" fill-opacity="1" /><path clip-path="url(#clip940)" d="M1980.12 180.159 L1980.12 183.701 L1976.05 183.701 Q1973.75 183.701 1972.85 184.627 Q1971.97 185.553 1971.97 187.96 L1971.97 190.252 L1978.99 190.252 L1978.99 193.562 L1971.97 193.562 L1971.97 216.178 L1967.69 216.178 L1967.69 193.562 L1963.62 193.562 L1963.62 190.252 L1967.69 190.252 L1967.69 188.446 Q1967.69 184.118 1969.7 182.15 Q1971.72 180.159 1976.09 180.159 L1980.12 180.159 Z" fill="#000000" fill-rule="evenodd" fill-opacity="1" /><path clip-path="url(#clip940)" d="M2017.41 191.247 L2017.41 195.229 Q2015.61 194.233 2013.78 193.747 Q2011.97 193.238 2010.12 193.238 Q2005.98 193.238 2003.68 195.877 Q2001.39 198.492 2001.39 203.238 Q2001.39 207.983 2003.68 210.622 Q2005.98 213.238 2010.12 213.238 Q2011.97 213.238 2013.78 212.752 Q2015.61 212.242 2017.41 211.247 L2017.41 215.182 Q2015.63 216.016 2013.71 216.432 Q2011.81 216.849 2009.66 216.849 Q2003.8 216.849 2000.35 213.168 Q1996.9 209.488 1996.9 203.238 Q1996.9 196.895 2000.37 193.261 Q2003.87 189.627 2009.93 189.627 Q2011.9 189.627 2013.78 190.043 Q2015.65 190.437 2017.41 191.247 Z" fill="#000000" fill-rule="evenodd" fill-opacity="1" /><path clip-path="url(#clip940)" d="M2046.99 202.15 L2046.99 204.233 L2027.41 204.233 Q2027.69 208.631 2030.05 210.946 Q2032.43 213.238 2036.67 213.238 Q2039.12 213.238 2041.42 212.636 Q2043.73 212.034 2046 210.83 L2046 214.858 Q2043.71 215.83 2041.3 216.34 Q2038.89 216.849 2036.42 216.849 Q2030.21 216.849 2026.58 213.238 Q2022.97 209.627 2022.97 203.469 Q2022.97 197.104 2026.39 193.377 Q2029.84 189.627 2035.68 189.627 Q2040.91 189.627 2043.94 193.006 Q2046.99 196.363 2046.99 202.15 M2042.74 200.9 Q2042.69 197.405 2040.77 195.321 Q2038.87 193.238 2035.72 193.238 Q2032.16 193.238 2030 195.252 Q2027.87 197.266 2027.55 200.923 L2042.74 200.9 Z" fill="#000000" fill-rule="evenodd" fill-opacity="1" /><path clip-path="url(#clip940)" d="M2075.54 200.529 L2075.54 216.178 L2071.28 216.178 L2071.28 200.668 Q2071.28 196.988 2069.84 195.159 Q2068.41 193.33 2065.54 193.33 Q2062.09 193.33 2060.1 195.53 Q2058.11 197.729 2058.11 201.525 L2058.11 216.178 L2053.82 216.178 L2053.82 190.252 L2058.11 190.252 L2058.11 194.28 Q2059.63 191.942 2061.69 190.784 Q2063.78 189.627 2066.49 189.627 Q2070.95 189.627 2073.24 192.405 Q2075.54 195.159 2075.54 200.529 Z" fill="#000000" fill-rule="evenodd" fill-opacity="1" /><path clip-path="url(#clip940)" d="M2088.24 182.891 L2088.24 190.252 L2097.02 190.252 L2097.02 193.562 L2088.24 193.562 L2088.24 207.636 Q2088.24 210.807 2089.1 211.71 Q2089.98 212.613 2092.64 212.613 L2097.02 212.613 L2097.02 216.178 L2092.64 216.178 Q2087.71 216.178 2085.84 214.349 Q2083.96 212.497 2083.96 207.636 L2083.96 193.562 L2080.84 193.562 L2080.84 190.252 L2083.96 190.252 L2083.96 182.891 L2088.24 182.891 Z" fill="#000000" fill-rule="evenodd" fill-opacity="1" /><path clip-path="url(#clip940)" d="M2124.8 202.15 L2124.8 204.233 L2105.21 204.233 Q2105.49 208.631 2107.85 210.946 Q2110.24 213.238 2114.47 213.238 Q2116.92 213.238 2119.22 212.636 Q2121.53 212.034 2123.8 210.83 L2123.8 214.858 Q2121.51 215.83 2119.1 216.34 Q2116.69 216.849 2114.22 216.849 Q2108.01 216.849 2104.38 213.238 Q2100.77 209.627 2100.77 203.469 Q2100.77 197.104 2104.19 193.377 Q2107.64 189.627 2113.48 189.627 Q2118.71 189.627 2121.74 193.006 Q2124.8 196.363 2124.8 202.15 M2120.54 200.9 Q2120.49 197.405 2118.57 195.321 Q2116.67 193.238 2113.52 193.238 Q2109.96 193.238 2107.8 195.252 Q2105.67 197.266 2105.35 200.923 L2120.54 200.9 Z" fill="#000000" fill-rule="evenodd" fill-opacity="1" /><path clip-path="url(#clip940)" d="M2146.81 194.233 Q2146.09 193.817 2145.23 193.631 Q2144.4 193.423 2143.38 193.423 Q2139.77 193.423 2137.83 195.784 Q2135.91 198.122 2135.91 202.52 L2135.91 216.178 L2131.62 216.178 L2131.62 190.252 L2135.91 190.252 L2135.91 194.28 Q2137.25 191.918 2139.4 190.784 Q2141.55 189.627 2144.63 189.627 Q2145.07 189.627 2145.61 189.696 Q2146.14 189.743 2146.79 189.858 L2146.81 194.233 Z" fill="#000000" fill-rule="evenodd" fill-opacity="1" /><path clip-path="url(#clip940)" d="M2167.8 191.016 L2167.8 195.043 Q2166 194.117 2164.05 193.655 Q2162.11 193.192 2160.03 193.192 Q2156.86 193.192 2155.26 194.164 Q2153.68 195.136 2153.68 197.08 Q2153.68 198.562 2154.82 199.418 Q2155.95 200.252 2159.38 201.016 L2160.84 201.34 Q2165.37 202.312 2167.27 204.094 Q2169.19 205.854 2169.19 209.025 Q2169.19 212.636 2166.32 214.742 Q2163.48 216.849 2158.48 216.849 Q2156.39 216.849 2154.12 216.432 Q2151.88 216.039 2149.38 215.228 L2149.38 210.83 Q2151.74 212.057 2154.03 212.682 Q2156.32 213.284 2158.57 213.284 Q2161.58 213.284 2163.2 212.266 Q2164.82 211.224 2164.82 209.349 Q2164.82 207.613 2163.64 206.687 Q2162.48 205.761 2158.52 204.904 L2157.04 204.557 Q2153.08 203.724 2151.32 202.011 Q2149.56 200.275 2149.56 197.266 Q2149.56 193.608 2152.16 191.618 Q2154.75 189.627 2159.52 189.627 Q2161.88 189.627 2163.96 189.974 Q2166.04 190.321 2167.8 191.016 Z" fill="#000000" fill-rule="evenodd" fill-opacity="1" /></svg>
